<svg xmlns="http://www.w3.org/2000/svg" width="256" height="256"><path fill-opacity=".016" d="M0 128.004v128.004l128.25-.254 128.25-.254.254-127.75L257.008 0H0v128.004m.485.496c0 70.4.119 99.053.265 63.672.146-35.38.146-92.98 0-128C.604 29.153.485 58.1.485 128.5" fill="#1976D2" fill-rule="evenodd"/><path fill-opacity=".139" d="M103.5 6.661c-32.05 5.784-64.407 26.458-82.315 52.596C13.974 69.783 6.678 85.424 3.347 97.5c-2.586 9.377-2.758 11.246-2.755 30 .003 18.536.198 20.72 2.67 29.837 3.208 11.832 10.67 27.822 17.923 38.402 11.364 16.578 32.394 34.17 50.964 42.633 9.628 4.387 21.197 8.047 31.785 10.056 10.791 2.047 35.836 2.09 47.356.081 39.665-6.917 74.49-32.422 92.181-67.509 5.007-9.93 10.23-25.605 11.155-33.476.357-3.038 1.037-5.524 1.512-5.524.474 0 .855-7.088.847-15.75-.009-8.869-.382-15.172-.854-14.428-.538.849-1.074-.682-1.496-4.274-1.404-11.941-8.963-31.289-17.405-44.548-8.382-13.165-22.316-27.267-36.333-36.772-12.676-8.596-31.238-16.046-48.143-19.323-11.989-2.325-37.036-2.448-49.254-.244m14.69 4.017c.929.245 1.874 1.655 2.1 3.134.37 2.427.425 2.372.56-.562.128-2.779-.176-3.233-2.1-3.134-1.596.082-1.759.246-.56.562m12.003 4.008c.295 4.626.434 4.826 3.557 5.127 2.847.275 3.236.027 3.134-2-.085-1.694-.238-1.845-.573-.563-.277 1.06-1.414 1.75-2.884 1.75-2.165 0-2.427-.432-2.427-4 0-3.756.179-4 2.927-4 1.744 0 3.117.614 3.398 1.52.331 1.066.425.992.315-.25-.114-1.292-1.182-1.855-3.956-2.084l-3.799-.314.308 4.814m13.997-3.008c.929.245 1.874 1.655 2.1 3.134.37 2.427.425 2.372.56-.562.128-2.779-.176-3.233-2.1-3.134-1.596.082-1.759.246-.56.562m-44.94 2.011c1.135.297 1.97 1.837 2.378 4.384.463 2.895 1.104 3.927 2.441 3.927.997 0 2.065-.408 2.373-.907.309-.498-.293-.683-1.338-.41-1.565.409-2.019-.22-2.589-3.593-.569-3.367-1.073-4.069-2.853-3.974-1.691.091-1.781.216-.412.573m56.374.85c-.343.893-.595 2.15-.561 2.793.035.642.495.09 1.022-1.227.527-1.318.779-2.574.56-2.793-.219-.219-.679.333-1.021 1.227m5.998 3.684c-.386 2.047-1.472 4.171-2.412 4.719-1.574.918-1.577 1-.038 1.028 1.753.031 4.343-5.938 3.571-8.229-.23-.682-.735.434-1.121 2.482m-73.548-1.595c-.041.62.593 2.723 1.407 4.673 1.148 2.746 1.204 3.673.25 4.113-.677.312-.106.296 1.269-.036 1.375-.331 2.902-.977 3.394-1.434.492-.458.032-.607-1.022-.331-1.518.397-2.261-.395-3.571-3.806-.909-2.369-1.687-3.799-1.727-3.179M124 17.44c0 1.003-.544 1.57-1.25 1.305-.687-.257-2.15-.112-3.25.323-1.623.642-1.381.805 1.281.862 3.108.066 5.389-2.094 3.843-3.64-.343-.343-.624.175-.624 1.15m43.201 2.881c-.661 1.827-1.181 3.964-1.157 4.75.024.786.669-.326 1.434-2.471.764-2.145 1.982-4.276 2.706-4.735 1.031-.654.981-.838-.233-.85-.854-.008-2.088 1.475-2.75 3.306m-22.563-.821c-.347.905-.005 1.5.862 1.5s1.209-.595.862-1.5c-.317-.825-.705-1.5-.862-1.5-.157 0-.545.675-.862 1.5M172 18.393c0 .216.698.661 1.552.989.89.341 1.291.173.941-.393-.587-.951-2.493-1.406-2.493-.596m-17.732 2.024c.127 1.055.907 2.101 1.732 2.326.965.263 1.107.114.4-.417-.605-.454-1.385-1.501-1.732-2.326-.445-1.054-.564-.93-.4.417m-78.768.761c-1.1.614-2.183 1.271-2.406 1.459C72.45 23.18 76.213 31 77.118 31c.448 0-.15-1.635-1.329-3.634-2.083-3.53-2.091-3.672-.275-5 2.669-1.952 3.236-1.749 5.078 1.812 1.545 2.988 1.536 3.256-.166 4.5-2.021 1.478-.736 1.804 1.51.383 1.23-.778 1.172-1.496-.402-4.985-1.937-4.297-2.793-4.708-6.034-2.898m97.195 3.335c-.914 1.918-1.456 3.487-1.205 3.487.685 0 3.72-6.123 3.263-6.58-.217-.217-1.143 1.174-2.058 3.093m5.937 1.133c-1.345 2.82-1.467 3.897-.539 4.75.887.816 1.021.785.513-.117-.378-.671.029-2.606.905-4.301 1.267-2.45 2.043-2.954 3.791-2.463 1.732.485 1.88.393.698-.434-2.498-1.749-3.551-1.246-5.368 2.565m5.766 2.992c-1.157 2.399-1.787 4.362-1.402 4.362.83 0 4.501-7.861 3.91-8.372-.223-.194-1.352 1.611-2.508 4.01M66.289 31.362c1.81 3.572 2.528 4.2 3.961 3.465 1.971-1.011 2.315-3.36.643-4.393-.745-.461-.887.011-.433 1.441 1.06 3.339-1.069 2.493-3.46-1.375-2.992-4.841-3.369-4.383-.711.862M119.5 28c-.34.55-.168 1 .382 1s1.278-.45 1.618-1c.34-.55.168-1-.382-1s-1.278.45-1.618 1m3.398 1.284c-1.909 1.284-3.546 3.318-3.736 4.643-.314 2.19-.1 2.306 3 1.63 1.836-.401 7.163-1.343 11.838-2.094 4.675-.751 8.613-1.387 8.75-1.414.137-.027.25-.897.25-1.932 0-2.327-2.592-3.085-10.602-3.103-4.713-.011-6.876.506-9.5 2.27m-18.706.386c-5.818 1.378-6.285 1.688-6 3.988.25 2.022 1.297 2.828 5.528 4.254l5.22 1.76 2.53-2.641c1.628-1.699 2.53-3.78 2.53-5.836 0-3.7-.374-3.759-9.808-1.525m85.876 1.234c-2.521 3.541-2.568 4.459-.318 6.224 1.572 1.232 1.615 1.2.431-.314-.956-1.221-1.034-2.187-.284-3.5 2.518-4.41 2.755-4.571 4.976-3.382 2.782 1.489 2.684 2.988-.413 6.328-1.398 1.507-2.103 2.74-1.569 2.74 1.136 0 5.109-5.325 5.109-6.848 0-1.051-3.849-4.152-5.154-4.152-.391 0-1.64 1.307-2.778 2.904M148 30.5c0 1.111 1.103 1.479 4.25 1.419l4.25-.081-3-1.374c-3.945-1.806-5.5-1.796-5.5.036m-91.41 2.75c.389.688 1.607 2.249 2.706 3.471 1.715 1.906 1.807 2.472.656 4-1.26 1.67-1.231 1.678.474.122 1.747-1.594 1.712-1.796-.923-5.25-2.678-3.511-4.324-4.835-2.913-2.343m-4.021 1.674c-1.662 1.836-1.637 2.065.533 5C54.353 41.616 55.974 43 56.704 43s-.137-1.308-1.927-2.908c-3.218-2.875-3.233-2.93-1.361-5C54.458 33.942 55.085 33 54.81 33c-.275 0-1.284.866-2.241 1.924m80.431.604c-13.636 2.14-14.015 2.961-1.417 3.075 11.35.102 11.417.088 11.417-2.25 0-1.294-.338-2.309-.75-2.256-.412.053-4.575.697-9.25 1.431M148 37c0 2.68.327 3 3.059 3 1.682 0 2.803-.414 2.491-.919-.313-.506.158-1.647 1.047-2.535 2.02-2.02 4.403-.418 4.403 2.96 0 1.42.744 2.455 2 2.784 2.45.64 2.613-1.203.474-5.34-1.431-2.767-1.895-2.95-7.5-2.95-5.971 0-5.974.001-5.974 3m15.553-.25c.789 1.513 1.437 3.763 1.441 5 .003 1.237.569 2.256 1.256 2.264.688.007 2.15.256 3.25.552 1.806.486 1.988.077 1.878-4.206-.131-5.101-1.226-6.15-6.569-6.29-2.62-.068-2.653.002-1.256 2.68m40.344-.381c1.22 1.477 1.1 2.005-.952 4.19-1.352 1.439-2.982 2.257-3.841 1.927-1.076-.412-.976-.002.357 1.471 1.958 2.163 4.052 2.641 4.981 1.136.309-.498-.34-.671-1.441-.383-2.806.734-2.493-.607.976-4.186l2.977-3.072-2.227-1.386c-2.048-1.276-2.115-1.252-.83.303m-121.147.793c-2.003.732-2.75 1.687-2.75 3.515 0 2.452.123 2.494 5.25 1.805 6.034-.811 7.25-1.395 7.25-3.482 0-2.789-4.712-3.678-9.75-1.838M98 39.139c0 .473 1.125.861 2.5.861s2.5-.173 2.5-.383c0-.211-1.125-.599-2.5-.862s-2.5-.09-2.5.384m79 2.841V46l6.75-.007 6.75-.006-3-2.043c-1.65-1.124-4.687-2.93-6.75-4.014L177 37.959v4.021m-56.972-1.018c-1.692 1.069-1.989.908 6.972 3.777 3.229 1.034 7.668 1.636 10.75 1.459 4.73-.273 5.25-.531 5.25-2.611 0-2.038-.615-2.382-5.25-2.939-7.592-.912-16.02-.763-17.722.314m-77.927 2.416c-1.002 1.208-.895 1.381.614.986 1.115-.291 2.756.509 4.204 2.05 2.066 2.199 2.198 2.759 1.016 4.307-.747.978.078.465 1.835-1.141 2.483-2.269 2.943-3.221 2.069-4.274-.618-.745-1.384-1.094-1.703-.776-.318.318.019.948.75 1.399 1.005.622 1.038 1 .134 1.558-.705.436-2.525-.553-4.448-2.418-2.786-2.7-3.431-2.944-4.471-1.691m29.76.589c-1.651 1.375-1.91 1.972-.861 1.984 1.89.023 3.427-1.084 3.75-2.701.34-1.698-.131-1.581-2.889.717M148 44c0 1.443.667 2 2.393 2 2.296 0 4.117-2.157 2.871-3.402-.328-.329-1.647-.598-2.931-.598-1.666 0-2.333.571-2.333 2m-62 .265c-5.137.96-5.309 1.081-2.604 1.834 1.907.531 4.041.327 6.25-.595 2.995-1.252 4.573-2.697 2.604-2.385-.412.065-3.225.581-6.25 1.146m24-.446c0 1.208 1.897 2.617 2.591 1.924.251-.252-.229-1.027-1.067-1.723-.95-.789-1.524-.865-1.524-.201m103.899.398c1.108 1.474.889 2.07-1.554 4.222-1.565 1.378-3.509 2.268-4.321 1.978-.813-.291-.397.622.924 2.027 2.853 3.038 2.485 2.967 4.18.806 1.227-1.566 1.197-1.613-.289-.451-3.27 2.556-2.944-.733.367-3.714 3.246-2.921 3.265-2.991 1.349-4.775-1.627-1.513-1.734-1.529-.656-.093M98 45c0 .55.423 1 .941 1s1.219-.45 1.559-1c.34-.55-.084-1-.941-1S98 44.45 98 45m60.816 1.75c-.31 2.695-.476 2.76-8.291 3.25l-7.975.5 6.397 2.749c6.119 2.63 6.481 2.674 8.331 1 2.413-2.181 5.852-8.786 5.012-9.625-1.469-1.469-3.18-.421-3.474 2.126M119 46.826c0 1.004 1.042 2.804 2.314 4 2.036 1.912 3.451 2.176 11.75 2.189 5.19.009 10.076.42 10.857.915.782.495 1.682 2.747 2 5.003l.579 4.104 3.962-2.699 3.962-2.698-5.962-2.661c-3.279-1.464-7.762-3.214-9.962-3.89-2.2-.675-4.9-1.644-6-2.152C129.082 47.359 121.816 45 120.374 45c-.756 0-1.374.822-1.374 1.826m44.212 2.21-1.919 3.879 6.603.293 6.604.292V60c0 6.019.218 6.667 2.944 8.75 1.62 1.237 3.982 2.25 5.25 2.25 1.505 0 2.328.608 2.37 1.75.081 2.239 8.449 9.25 11.039 9.25 1.846 0 1.949-.628 1.682-10.237l-.285-10.237-8.467-5.299c-4.657-2.914-9.607-5.534-11-5.823-1.393-.289-3.273-.922-4.177-1.407-.904-.485-3.237-1.547-5.184-2.361l-3.541-1.479-1.919 3.879m-74.129-1.671c.23.2 1.419.885 2.644 1.523 1.873.973 2.135.915 1.644-.365-.322-.838-1.512-1.523-2.645-1.523-1.132 0-1.872.164-1.643.365m25.167 2.421c-1.787.187-3.25.442-3.25.565 0 2.02 3.068 24.05 3.394 24.377.251.25 1.389.158 2.531-.204 1.903-.604 2.075-1.425 2.075-9.891 0-5.895.438-9.671 1.211-10.444 1.936-1.936-1.969-4.821-5.961-4.403m-50.005 1.369c-.874.874-.632 1.7.994 3.39l2.151 2.234 3.785-2.389c2.082-1.315 4.357-2.397 5.055-2.405.873-.011.801-.319-.23-.985-2.092-1.352-10.357-1.243-11.755.155M96 50.965c0 .53.855 1.422 1.9 1.982 1.456.779 2.04.651 2.5-.547.888-2.313.819-2.4-1.9-2.4-1.375 0-2.5.434-2.5.965m6.422 1.514c-1.559 2.378-1.499 2.636 1.48 6.398 3.52 4.444 7.043 11.684 7.076 14.54.012 1.054.246 1.692.52 1.419.273-.274-.177-5.608-1-11.853-.824-6.246-1.498-11.722-1.498-12.169 0-1.948-5.048-.67-6.578 1.665m87.469 2.021c4.014 2.475 7.481 4.5 7.704 4.5.223 0 .405-.873.405-1.941s.479-2.237 1.065-2.599c.697-.431.471-1.315-.655-2.559-1.38-1.525-3.113-1.901-8.769-1.901h-7.049l7.299 4.5m-157.019-.75c-1.233 1.573-1.201 1.616.319.426 1.44-1.126 2.142-.989 4.729.923 2.496 1.846 2.83 2.528 1.87 3.824-.643.867.097.386 1.644-1.069 2.683-2.524 2.807-4.871.257-4.839-.783.01-.719.315.187.889.758.48 1.068 1.375.689 1.988-.463.748-1.772.29-3.973-1.388-3.907-2.98-3.969-2.988-5.722-.754M77.5 53l-2 .859 2-.048c1.1-.026 3.35-.391 5-.811l3-.763-3-.048c-1.65-.027-3.9.338-5 .811m140.753 2.25c-1.77 1.237-3.226 2.61-3.236 3.051-.009.44 1.568-.408 3.505-1.885 3.477-2.653 3.55-2.663 5.75-.801L226.5 57.5l-1.905-2.25c-1.048-1.237-2.179-2.25-2.514-2.25-.335 0-2.058 1.013-3.828 2.25M70.25 57.115c-3.152 2.018-3.25 2.29-3.25 8.983 0 3.796.411 6.902.913 6.902.503 0 2.292-1.874 3.976-4.164 1.685-2.29 4.235-4.934 5.669-5.874l2.606-1.709-3.202-1.116c-2.505-.874-3.086-1.553-2.675-3.127.658-2.517.032-2.501-4.037.105m87.749-.064c.001.437 5.206 3.361 10.251 5.759.412.196.75-.989.75-2.634 0-2.917-.136-2.999-5.501-3.333-3.026-.189-5.501-.095-5.5.208M49.483 61.679C45.534 65.801 45 66.892 45 70.844v4.487l6.383-5.916c5.186-4.806 6.405-6.524 6.5-9.165.173-4.792-2.947-4.262-8.4 1.429M60 59.059c0 1.132.45 1.781 1 1.441.55-.34 1-1.266 1-2.059 0-.793-.45-1.441-1-1.441s-1 .927-1 2.059m28-1.666c0 .216.698.661 1.552.989.89.341 1.291.173.941-.393-.587-.951-2.493-1.406-2.493-.596m36 7.107c0 8.517.257 8.705 7.762 5.657l4.262-1.73-5.092-5.714C128.131 59.571 125.426 57 124.92 57c-.506 0-.92 3.375-.92 7.5m5-6.708c0 .435 1.992 2.746 4.426 5.135 5.53 5.427 7.574 5.051 7.574-1.396V57h-6c-3.3 0-6 .356-6 .792m74 2.339c0 2.385.709 4.188 2.15 5.464l2.151 1.905-.617-3.931c-.339-2.162-1.307-4.621-2.15-5.464-1.379-1.378-1.534-1.173-1.534 2.026m19.5.29c-2.83 2.275-3.113 2.317-5 .745-1.98-1.649-1.981-1.644-.118.558l1.881 2.225 2.838-2.021c2.526-1.799 4.547-3.937 3.708-3.923-.17.003-1.659 1.09-3.309 2.416M26.321 61.633c-1.696 2.589-1.676 2.673 1.227 4.995 3.557 2.846 4.635 2.932 6.797.543 2.387-2.638 2.075-3.748-1.713-6.089-4.233-2.617-4.236-2.617-6.311.551m124.429.575L146 65.357v5.815c0 5.657.197 6.081 7.26 15.572 3.992 5.366 9.422 13.447 12.066 17.958l4.808 8.202 3.433-1.637L177 109.63v-7.249c0-7.164-.032-7.252-2.75-7.565-3.49-.401-3.682-3.194-.25-3.642 2.281-.298 5.924-3.603 5.978-5.424.012-.412-4.628-.75-10.311-.75-5.684 0-10.63-.296-10.992-.658-1.48-1.48 1.832-3.342 5.947-3.342H169V65.462l-5.877-3.231c-3.232-1.777-6.27-3.218-6.75-3.201-.48.016-3.01 1.446-5.623 3.178m-123.801-.113c-1.025 1.915-.864 2.465 1.182 4.039 2.794 2.148 4.04 2.295 5.669.666 1.892-1.892 1.421-3.368-1.55-4.857l-3.432-1.722c-.376-.188-1.216.655-1.869 1.874m69.59-.158c-1.025 1.659 4.351 10.042 6.027 9.399 1.187-.455 1.05-1.246-.779-4.501-2.689-4.784-4.357-6.34-5.248-4.898M80.07 63.416c-.945 1.138-.723 1.553 1.127 2.116 1.267.385 3.717 1.759 5.445 3.052 3.038 2.275 3.158 2.288 3.654.393.351-1.342-.428-2.752-2.469-4.469-3.348-2.818-6.014-3.193-7.757-1.092m-19.624.671c-.369.598-.171 1.588.441 2.2.817.817 1.113.528 1.113-1.087 0-2.415-.519-2.787-1.554-1.113m148.671 1.96c.2 2.231 1.88 5.489 4.744 9.203 4.665 6.049 6.139 6.977 6.139 3.864 0-2.009-6.931-12.982-9.599-15.196-1.413-1.173-1.559-.932-1.284 2.129m21.451-1.731c.343.894-.763 2.192-2.989 3.505-3.281 1.935-3.604 1.963-4.525.382-.546-.937-1.007-1.35-1.024-.918-.016.432.697 1.895 1.585 3.25 1.64 2.504 3.81 3.204 4.827 1.558.309-.498-.34-.671-1.441-.383-3.216.841-2.305-1.333 1.499-3.577 3.541-2.09 4.313-3.512 2.511-4.626-.547-.338-.745.023-.443.809M51.071 71.777C43.606 78.88 43.222 81 49.4 81c3.739 0 4.973-.563 8.217-3.75 2.099-2.062 3.862-4.2 3.917-4.75.136-1.345-2.782-6.5-3.679-6.5-.393 0-3.445 2.599-6.784 5.777M203 73.826c0 5.71.306 7.174 1.5 7.174.825 0 1.52-.338 1.544-.75.024-.412.41-2.644.858-4.959.717-3.706.533-4.474-1.544-6.424L203 66.651v7.175M72.4 71.11c-.947 1.046-1.536 2.064-1.311 2.261 1.622 1.415 5.359 2.616 9.988 3.207l5.423.693-2.3-2.503c-1.266-1.378-4.051-3.192-6.19-4.032-3.637-1.429-4-1.405-5.61.374m102.439 3.983c.314 5.482.512 5.907 2.75 5.907 2.13 0 2.411-.448 2.411-3.845 0-3.547-1.238-5.585-4.5-7.41-.633-.354-.876 1.61-.661 5.348M20.507 70.989c-.342.553.032.741.851.427.804-.308 2.86.162 4.569 1.046 2.647 1.369 2.951 1.897 2.055 3.572-.579 1.081-.827 1.966-.552 1.966.275 0 .98-.898 1.567-1.995.915-1.709.597-2.282-2.215-3.996-3.643-2.222-5.36-2.501-6.275-1.02M130.5 72.453c-5.387 2.076-6.032 2.631-6.313 5.43L123.873 81H141v-3.277c0-3.12-2.329-7.803-3.807-7.653-.381.039-3.393 1.111-6.693 2.383M18.667 73.667c-.367.366-.667 1.032-.667 1.479 0 .944 7.991 5.196 8.607 4.58.227-.227-1.41-1.235-3.638-2.24-2.539-1.145-3.862-2.324-3.542-3.157.558-1.454.277-1.699-.76-.662m190.014 2.911c-.341 2.1-.453 3.983-.25 4.186.202.203 1.948.226 3.878.052l3.51-.316-3.26-3.869-3.259-3.869-.619 3.816M231 76c-4.385 2.401-3.301 2.588 1.561.27 3.494-1.667 3.681-1.66 5.034.191 2.005 2.742 1.855 3.032-2.605 5.044-2.206.994-3.824 1.994-3.597 2.221.594.594 8.607-3.618 8.607-4.524 0-1.458-3.125-5.202-4.307-5.16-.656.023-2.768.904-4.693 1.958M36.601 79.342c-3.613 6.035-7.553 15.505-7.555 18.158 0 1.173 1.342-.49 3.246-4.021 1.785-3.312 4.279-7.472 5.541-9.244 1.534-2.155 2.191-4.302 1.981-6.479L39.5 74.5l-2.899 4.842m79.256-2.673c-.904.24-1.493 1.199-1.31 2.134.182.933 1.083 6.984 2.001 13.447l1.669 11.75 6.642.001h6.641l-.331-4.772c-.49-7.055 1.098-8.082 13.043-8.44l9.64-.289-3.553-4.792c-3.438-4.637-3.598-4.726-4.982-2.75-1.296 1.85-2.488 2.042-12.674 2.042C120.195 85 119 84.501 119 79.3c0-1.815-.338-3.248-.75-3.184-.412.064-1.489.312-2.393.553M185 79.432c0 2.187.445 2.568 3 2.568 1.65 0 3-.194 3-.432 0-.237-1.35-1.393-3-2.568l-3-2.136v2.568m-106.23.797c.348 1.329 1.095 1.602 3.094 1.132 4.377-1.028 4.541-2.112.379-2.509-3.349-.32-3.863-.116-3.473 1.377m33.321-.479c-.073 1.813-.673 2.25-3.091 2.25-2 0-3 .5-3 1.5 0 1.237-1.823 1.5-10.405 1.5H85.189l-3.094 8.552c-2.94 8.125-3.095 9.299-3.095 23.5V132h12v-12.8c0-8.622.392-13.192 1.2-14 .66-.66 3.36-1.2 6-1.2h4.8v-8.895l-5.25-.303c-3.866-.222-5.25-.698-5.25-1.802 0-1.179 1.658-1.562 7.75-1.792l7.75-.292V104h4c2.56 0 3.982-.45 3.95-1.25-.13-3.226-3.78-24.976-3.859-23M18.75 82.662c4.258 1.507 4.98 2.636 3.342 5.223-1.054 1.665-5.204.86-7.522-1.458-1.277-1.277-1.57-1.306-1.57-.158 0 .776 1.853 2.022 4.118 2.77 3.777 1.246 4.232 1.202 5.5-.531.76-1.04 1.382-2.502 1.382-3.25 0-1.366-5.822-4.327-8.218-4.179-.705.043.631.756 2.968 1.583m18.452 6.034c-1.691 2.642-4.201 7.241-5.578 10.22-2.672 5.782-2.461 7.235 1.827 12.584l1.604 2-.278-2c-.213-1.541.297-2 2.223-2 2.25 0 2.531.45 2.813 4.5.459 6.597 1.736 6.886 3.713.84 2.057-6.294 8.187-19.696 9.988-21.84.725-.863 1.047-2.88.759-4.75-.492-3.195-.589-3.25-5.805-3.25-2.917 0-5.954-.249-6.747-.554-.948-.363-2.5 1.097-4.519 4.25m185.127-4.002c-1.521.546 1.622 6.291 3.447 6.3.956.004.862-.808-.377-3.244-1.982-3.896-1.65-3.566-3.07-3.056M79.986 87.25c-.007 1.237-.241 3.375-.518 4.75-.325 1.609.188 1.075 1.439-1.5 2.41-4.957 2.468-5.5.593-5.5-.885 0-1.506.923-1.514 2.25M217 88c0 2.533.389 3 2.5 3 2.944 0 3.015-.284.885-3.535C218.222 84.164 217 84.357 217 88m20.5 1.945c-1.1.443-2.338.609-2.75.371-.412-.239-.75.073-.75.692 0 1.144 3.012.592 6-1.099 1.881-1.064.174-1.039-2.5.036m-41.465 2.989c-1.304 2.438-1.319 3.36-.04 2.569 1.606-.992 3.224-4.503 2.075-4.503-.55 0-1.465.87-2.035 1.934M206.595 96c1.976 2.75 3.663 5 3.749 5.001.086 0 .156-1.669.156-3.709 0-2.95.512-3.971 2.5-4.986 2.285-1.167 1.962-1.278-3.748-1.291L203.003 91l3.592 5m-8.447-.653c-5.066 5.227-4.347 6.653 3.352 6.653 3.575 0 6.5-.252 6.5-.56 0-.308-1.508-2.536-3.352-4.95l-3.352-4.39-3.148 3.247m37.453-1.183c.255.412 1.124.495 1.931.185 2.036-.781 1.834-1.252-.463-1.079-1.062.08-1.722.482-1.468.894m-218.351.525c.962.252 1.75.875 1.75 1.384 0 1.208-3.194 1.184-6.435-.048-1.411-.537-2.565-.798-2.565-.582 0 .216-.267 1.218-.594 2.225-.433 1.334-.337 1.473.354.509 1.357-1.893 8.211-.506 8.326 1.684.047.902.478.328.957-1.275 1.016-3.396.504-4.632-1.852-4.47-1.525.105-1.519.161.059.573M137 99.5v4.5h6.418c3.53 0 7.13.273 8 .607 1.315.505 1.582-.254 1.582-4.5V95h-16v4.5m79 3.878c0 5.218.571 9.744 1.513 12 1.476 3.532 1.649 3.622 6.939 3.622h5.425l.653-4.351c.534-3.564.077-5.733-2.532-12L224.813 95H216v8.378m11.042-7.628c.062 1.112 3.867 7.882 3.916 6.968.066-1.235-2.796-7.718-3.407-7.718-.303 0-.532.338-.509.75M58 99.974V104h16v-3.535c0-3.185-.191-3.433-1.934-2.5-2.786 1.491-7.704 1.274-11.116-.491L58 95.949v4.025m186-2.581c0 .216.698.661 1.552.989.89.341 1.291.173.941-.393-.587-.951-2.493-1.406-2.493-.596m-86 4.666c0 3.215.691 4.964 3 7.594 1.65 1.879 3 3.851 3 4.382 0 1.187 1.061 1.213 2.866.069 1.082-.686.487-2.344-2.875-8.003-2.332-3.925-4.634-7.381-5.116-7.678-.481-.298-.875 1.339-.875 3.636m80.25-3.397c-.687.278-1.25.972-1.25 1.544 0 .706.401.713 1.25.024.688-.558 2.15-1.236 3.25-1.506l2-.492-2-.037c-1.1-.02-2.562.19-3.25.467m-187.82 4.474c-2.279 4.406-6.43 15.621-6.43 17.37 0 .803 2.25 2.6 5 3.994l5 2.534v-2.817c0-1.549-.482-3.299-1.072-3.889-.661-.661-.948-4.755-.75-10.702.177-5.297.221-9.629.098-9.628-.124.001-.954 1.413-1.846 3.138m196.649-.553c.048 1.165.285 1.402.604.605.289-.722.253-1.585-.079-1.917-.332-.332-.568.258-.525 1.312m-9 1.198c-.115 1.871 2.001 2.348 5.421 1.221 2.904-.956 2.882-.971-.657-.467-2.445.348-3.828.097-4.171-.757-.416-1.035-.529-1.034-.593.003M14.75 106.662c1.8.727 1.538 2.116-.5 2.649-1.317.344-1.193.486.5.573 1.622.084 2.25-.442 2.25-1.884 0-1.268-.64-1.971-1.75-1.921-1.045.047-1.247.282-.5.583m-6.481 2.031c.973.254 2.323.237 3-.037.677-.274-.119-.481-1.769-.461-1.65.02-2.204.244-1.231.498M29 113.762c0 5.118.067 5.238 2.912 5.238 3.557 0 3.511-1.449-.212-6.682l-2.7-3.794v5.238m217.813-4.079c.721.289 1.584.253 1.916-.079.332-.332-.258-.568-1.312-.525-1.165.048-1.402.285-.604.604m-5.544 1.01c.973.254 2.323.237 3-.037.677-.274-.119-.481-1.769-.461-1.65.02-2.204.244-1.231.498m7.847 2.494c-.097 2.25-.643 2.752-3.366 3.09l-3.25.403 3.281.16c3.471.169 4.753-1.314 3.92-4.532-.314-1.21-.507-.92-.585.879M.405 127.5c.001 8.8.154 12.266.34 7.703.185-4.564.184-11.764-.003-16-.187-4.237-.338-.503-.337 8.297M173.5 113.178c-1.1.614-2.149 1.237-2.331 1.384-.982.792 2.195 4.438 3.866 4.438 1.579 0 1.965-.688 1.965-3.5 0-3.767-.417-4.044-3.5-2.322m24.5 3.853c0 3.55-.442 5.201-1.5 5.607-.978.376-1.5 1.931-1.5 4.469V131h7.066c9.717 0 10.934.809 10.934 7.27v5.201l4.045-4.045 4.045-4.045-1.31-5.903c-1.227-5.531-1.52-5.945-4.674-6.59-4.211-.861-5.251-2.389-4.861-7.138l.308-3.75H198v5.031m42-2.09c0 1.068.385 2.179.856 2.47.47.291.643-.583.383-1.941-.564-2.951-1.239-3.239-1.239-.529m-73.75 1.721c-1.577.637-1.816 35.87-.25 36.838 1.428.883 1.259 13.841-.2 15.3-1.662 1.662-.816 1.521 5.611-.939l5.589-2.139v-16.341c0-16.429-.946-21.952-4.521-26.381-.666-.825-1.504-2.737-1.864-4.25-.629-2.649-1.703-3.162-4.365-2.088M5.345 121.543c-.326.849-.311 1.824.031 2.167.343.343.624-.095.624-.974 0-.878 1.012-1.792 2.25-2.03l2.25-.434-2.281-.136c-1.255-.075-2.548.558-2.874 1.407M13 121c-1.282.828-1.246.972.25.985.963.008 1.75-.435 1.75-.985 0-1.22-.113-1.22-2 0m108.587 2.75c.373 2.063.855 3.948 1.07 4.191.215.243 4.768-.641 10.117-1.963l9.726-2.403-4.939-.604c-2.716-.333-5.116-1.137-5.333-1.788-.24-.718-2.541-1.183-5.857-1.183h-5.462l.678 3.75m-82.046-1.817c-.371.601-3.909 1.067-8.1 1.067H24v4.378c0 2.671.585 4.862 1.5 5.622 1.119.929 1.5 3.413 1.5 9.78 0 8.45.04 8.588 4.066 13.806 2.237 2.899 5.188 6.005 6.557 6.903l2.49 1.631-.73-3.81c-1.194-6.232-.878-25.304.54-32.605 1.247-6.416 1.092-9.156-.382-6.772m75.459 1.01c-3.079.49-3.538.948-3.813 3.807-.341 3.529.483 3.866 6.502 2.662 2.585-.517 2.887-.94 2.51-3.512-.518-3.528-.755-3.663-5.199-2.957m135 .557c0 1.111-1.167 1.5-4.5 1.5-2.475 0-4.5.338-4.501.75 0 .412 2.25.594 5 .403 4.128-.286 5.001-.678 5.001-2.25 0-1.046-.225-1.903-.5-1.903s-.5.675-.5 1.5m-208.093 5.429c-1.344 6.454-1.673 24.446-.571 31.22l.756 4.648 4.106-.55c7.065-.948 7.802-2.478 7.802-16.197V136.1l-5.75-.3c-4.983-.26-5.75-.567-5.75-2.3 0-1.733.767-2.04 5.75-2.3 7.282-.38 7.348-1.89.23-5.271l-5.413-2.57-1.16 5.57M175.71 125c.288 1.1.696 2 .907 2 .21 0 .383-.9.383-2s-.408-2-.906-2c-.499 0-.671.9-.384 2m45.408.25c.065 1.237.427 3.6.804 5.25l.685 3 2.713-5.25 2.714-5.25h-3.517c-3.016 0-3.5.321-3.399 2.25m8.166-.5c-.36.963-1.92 3.825-3.469 6.361-2.629 4.306-2.816 5.329-2.828 15.5-.012 9.893-2.259 25.074-4.558 30.803-.575 1.432-.441 1.712.53 1.111 1.933-1.195 9.665-18.136 11.421-25.025.841-3.3 1.932-8.588 2.423-11.75.797-5.125.706-5.75-.832-5.75-2.534 0-4.222-2.349-2.747-3.824.647-.647 1.986-1.176 2.976-1.176 1.433 0 1.8-.815 1.8-4 0-3.354-.328-4-2.031-4-1.118 0-2.326.787-2.685 1.75M133 127.791c-5.225 1.393-9.663 2.661-9.862 2.817-.363.284 1.249 8.194 5.036 24.704 1.745 7.606 2.367 8.943 4.546 9.771 1.725.656 2.955.602 3.888-.173.75-.622 2.946-.947 4.878-.722l3.514.41V136h-4.531c-3.233 0-4.708-.459-5.146-1.601-.818-2.13 1.345-3.365 5.927-3.384 3.497-.014 3.75-.218 3.75-3.015 0-3.518.389-3.512-12-.209m108.75.871c.688.278 1.813.278 2.5 0 .688-.277.125-.504-1.25-.504s-1.937.227-1.25.504M10.497 129.74c1.648.242 3.329.962 3.734 1.6.479.753.744.546.754-.59.012-1.385-.768-1.719-3.735-1.6-3.401.136-3.471.191-.753.59m-5.247 3.51c.241 3.127.43 3.262 5 3.555 2.613.167 4.75-.061 4.75-.507 0-.447-1.993-.654-4.43-.46-4.262.339-4.451.235-5-2.743L5 130l.25 3.25m113.095-.421c1.375 1.519 1.655 4.209 1.655 15.888v14.06l3.602.676c1.981.372 3.759.519 3.951.327.192-.192-.707-5.059-1.997-10.815-1.291-5.756-2.876-13.053-3.523-16.215-.977-4.785-1.525-5.75-3.259-5.75-1.956 0-1.982.113-.429 1.829M79 147.393c0 11.194.255 13.491 1.555 13.99 1.171.449 1.48 1.774 1.25 5.357-.29 4.528-.458 4.775-3.444 5.065-3.11.302-3.13.339-2.049 3.859.599 1.954 1.645 3.766 2.322 4.026 1.227.471 13.366-7.478 13.366-8.752 0-.368-.922-1.841-2.049-3.273-1.899-2.415-2.027-3.743-1.75-18.137l.299-15.531-4.75.002L79 134v13.393M111 150c0 11.778.238 14 1.5 14s1.5-2.222 1.5-14-.238-14-1.5-14-1.5 2.222-1.5 14m84-4c0 5.5.344 10 .763 10 .42 0 3.12-1.587 6-3.527l5.237-3.526V136h-12v10m45.667-8.333c-1.467 1.466-.551 3.327 1.583 3.217 1.693-.087 1.817-.229.5-.573-2.998-.784-1.922-2.172 2-2.583l3.75-.392-3.583-.168c-1.971-.092-3.884.132-4.25.499m-23.917 5.072-3.75 3.845v10.173c0 12.057-.165 12.243-10.827 12.243-5.263 0-7.099.366-7.535 1.5-.361.941-1.89 1.5-4.107 1.5-3.511 0-3.531.025-3.531 4.441 0 4.338 1.234 6.607 2.49 4.575.362-.585 5.131-1.016 11.24-1.016 8.087 0 11.012.361 12.29 1.518 1.544 1.398 1.846.94 3.795-5.75 3.138-10.775 4.324-19.277 3.987-28.571l-.302-8.304-3.75 3.846M11 141.383c0 .211 1.125.599 2.5.862s2.5.09 2.5-.384c0-.473-1.125-.861-2.5-.861s-2.5.173-2.5.383m-4.541 1.684c-.363.586-.389 1.336-.059 1.666.33.33.6.108.6-.493s.787-1.299 1.75-1.551c1.578-.412 1.584-.468.059-.573-.93-.064-1.988.364-2.35.951m9.179 3.433c-.316.825-.139 1.5.393 1.5.533 0 .969-.675.969-1.5s-.177-1.5-.393-1.5c-.216 0-.652.675-.969 1.5m223.348.75a244.45 244.45 0 0 0-.386 3.986c-.055.68.575 1.286 1.4 1.347.862.063.969-.069.25-.31-2.42-.812-1.213-2.275 2-2.423 2.934-.135 2.989-.19.562-.56-1.792-.274-2.831-1.141-3.114-2.6-.367-1.886-.465-1.809-.712.56M7 148.201c0 .439 1.575.799 3.5.799s3.5-.176 3.5-.391c0-.214-1.575-.574-3.5-.799-1.925-.225-3.5-.049-3.5.391m241 .049c0 .871-.562 1.81-1.25 2.088-.979.395-.972.521.031.583 1.426.088 2.818-2.655 1.843-3.631-.343-.343-.624.089-.624.96M15.5 153c-1.908.82-1.897.863.25.93 1.238.038 2.25-.38 2.25-.93s-.113-.968-.25-.93c-.137.039-1.15.457-2.25.93m184.75 2.706c-3.836 2.615-5.25 4.214-5.25 5.937 0 2.214.364 2.357 6 2.357h6v-6c0-3.3-.338-5.972-.75-5.937-.412.034-3.113 1.674-6 3.643m-186.606.925c-2.67.82-4.695 1.639-4.5 1.819.656.605 9.856-1.895 9.856-2.677 0-.425-.113-.742-.25-.703-.137.038-2.435.74-5.106 1.561m16.847 6.346c4.144 10.575 7.909 16.484 10.719 16.825l2.486.302-1.578-5.802c-1.343-4.934-2.514-6.684-7.833-11.703l-6.255-5.901 2.461 6.279m206.176-5.31c-.367.366-.66 1.154-.652 1.75.009.595.403.472.875-.274 1.127-1.778 6.736-.608 8.074 1.685.899 1.542.978 1.543 1.006.02.042-2.324-7.561-4.924-9.303-3.181M235 162.32c0 1.454 4.735 3.278 5.785 2.229.301-.302-.17-.549-1.047-.549-.877 0-2.302-.707-3.167-1.571-1.329-1.33-1.571-1.347-1.571-.109m8.211 2.281c-.71.769-.849 1.399-.309 1.399 1.038 0 2.541-1.902 1.948-2.466-.192-.183-.93.297-1.639 1.067M18 164.383c0 .211.9.619 2 .907 1.1.287 2 .115 2-.384 0-.498-.9-.906-2-.906s-2 .173-2 .383m-1.25 3.916c-1.835.725-2.711 1.772-2.634 3.144.095 1.687.198 1.742.573.307.252-.963.537-1.757.634-1.765 1.622-.138 7.594-2.879 6.177-2.835-1.1.035-3.238.552-4.75 1.149m100.78-.348c-.356.577-1.923 1.049-3.482 1.049-1.597 0-3.085.655-3.41 1.5-.427 1.114-2.198 1.5-6.874 1.5-5.139 0-7.034.487-10.282 2.642-4.897 3.25-8.482 6.433-8.482 7.532 0 1.397 22.428.998 23.847-.424.761-.762 5.299-1.45 11.629-1.762 5.71-.282 10.655-.785 10.988-1.118.333-.334-.198-3.028-1.179-5.988L128.5 167.5l-5.161-.299c-2.857-.166-5.45.169-5.809.75m45.75 4.452c-9.192 3.082-12.228 4.519-12.25 5.801-.049 2.821 12.024 2.9 18.67.123 5.195-2.171 5.205-2.171 10.25-.254l5.05 1.919v-3.996c0-3.92-.068-3.996-3.594-3.996-2.752 0-3.716-.468-4.116-2-.288-1.1-.808-1.931-1.157-1.847-.348.085-6.132 1.997-12.853 4.25m69.227-3.414c-.342.553.032.741.851.427.804-.308 2.84.152 4.525 1.023 2.75 1.423 2.951 1.831 1.966 3.994-.645 1.415-1.665 2.191-2.473 1.881-.757-.29-1.376-.303-1.376-.028 0 .275.671.758 1.492 1.073.978.375 2.037-.481 3.074-2.486.87-1.683 1.436-3.185 1.258-3.339-.956-.826-6.867-3.534-7.715-3.534-.545 0-1.266.445-1.602.989M48.5 171.484C54.544 175.223 67.474 180 71.547 180c3.551 0 3.6-.055 2.915-3.25-.384-1.787-.896-3.588-1.139-4-.242-.412-5.364-.75-11.382-.75-9.059 0-10.941-.258-10.941-1.5 0-1.027-1.026-1.498-3.25-1.495l-3.25.005 4 2.474m83.955 1.729c1.367 4.628 3.918 5.728 5.922 2.551.862-1.367.673-2.142-.891-3.646-1.092-1.05-2.956-2.198-4.142-2.551-2.1-.626-2.123-.533-.889 3.646m10.371-1.899c1.196 1.273 2.174 2.848 2.174 3.5 0 .653.45 1.186 1 1.186s1-.675 1-1.5c0-1.66 1.641-2.061 2.167-.529.202.591 2.098.421 4.833-.433l4.5-1.404-6.143-.067c-4.493-.049-6.298-.47-6.719-1.567-.316-.825-1.568-1.5-2.781-1.5h-2.206l2.175 2.314M44.46 175.25c1.163 3.958 1.515 4.272 5.132 4.575 5.921.494 6.408 1.342 6.408 11.142 0 10.087.261 10.49 9.427 14.543 3.874 1.713 7.198 2.489 9.813 2.291l3.955-.301-4.708-3.307c-5.868-4.123-5.353-5.095.861-1.622 2.559 1.43 4.652 2.123 4.652 1.54 0-.583-1.31-1.737-2.912-2.565-3.43-1.774-7.094-6.142-7.073-8.431.026-2.696 1.445-4.069 3.617-3.501 1.563.409 1.948 1.133 1.591 2.998-.287 1.504.221 3.221 1.309 4.423 2.43 2.686 3.003 2.482 3.281-1.166.387-5.078-.567-6.601-4.597-7.343-4.179-.769-12.761-4.314-12.084-4.991.242-.243 2.83.259 5.751 1.115 3.872 1.135 5.609 1.258 6.413.454.805-.805.253-1.104-2.037-1.104-1.728 0-3.398-.416-3.712-.924-.314-.507-2.928-1.682-5.809-2.61-2.881-.927-8.535-3.437-12.565-5.576-4.03-2.14-7.47-3.89-7.644-3.89-.175 0 .244 1.912.931 4.25m186.981-.805c1.068.855 2.38 1.555 2.917 1.555 1.27 0 .703-.462-2.358-1.92-2.357-1.122-2.389-1.102-.559.365M20.75 176.572c-4.007 2.174-3.367 2.69.845.681 3.454-1.647 3.65-1.638 5 .208 1.957 2.677 1.84 2.961-1.971 4.778-2.605 1.243-3.678 1.342-4.701.435-1.098-.972-1.103-.878-.027.546 1.223 1.619 1.53 1.604 5.202-.27 4.422-2.256 4.292-1.999 2.741-5.403-1.314-2.884-3.113-3.132-7.089-.975m118.446 4.413c-2.368 1.556-3.846 3.113-3.285 3.46 1.212.749 8.168-2.63 10.028-4.872 2.206-2.658-1.842-1.81-6.743 1.412m86.184 1.467c-.676 1.761.303 3.554 1.929 3.533.772-.01.7-.327-.205-.899-.767-.486-1.119-1.605-.781-2.485.338-.881.389-1.601.114-1.601s-.751.653-1.057 1.452m2.62-.003c0 .275 1.363 1.205 3.029 2.066 3.102 1.604 4.983 1.291 4.956-.824-.011-.805-.292-.756-.868.153-.703 1.11-1.399 1.062-3.984-.275-1.723-.891-3.133-1.395-3.133-1.12M43.907 186.87c3.105 4.359 4.261 4.761 2.65.919-.758-1.809-2.157-3.447-3.107-3.639-1.499-.304-1.438.058.457 2.72m4.749.88c2.135 5.151 2.344 5.188 2.344.417 0-3.464-.329-4.167-1.949-4.167-1.862 0-1.879.168-.395 3.75m65.157-3.067c.721.289 1.584.253 1.916-.079.332-.332-.258-.568-1.312-.525-1.165.048-1.402.285-.604.604m28.661 2.259c-5.017 2.655-5.024 2.665-4.15 6.358.983 4.159 1.885 4.4 7.721 2.065 2.847-1.139 4.403-1.317 5.133-.587 1.416 1.416.361 2.87-2.624 3.619-5.389 1.353-7.509 2.556-6.972 3.955.457 1.191 1.582 1.104 7.072-.543 3.592-1.077 6.677-1.812 6.857-1.632.179.18.618 1.49.975 2.911.57 2.271.246 2.713-2.669 3.646l-3.317 1.062 4.25.102c3.641.087 4.25-.19 4.25-1.933 0-1.12-.738-3.161-1.64-4.538-1.54-2.35-1.524-2.589.25-3.933 2.167-1.64 1.151-1.972-1.574-.514-1.466.786-2.177.453-3.566-1.666-1.654-2.524-1.649-2.71.089-3.981 1.003-.733 2.203-1.333 2.667-1.333.465 0 .332-.957-.294-2.127-.888-1.659-.841-2.316.215-2.985.855-.542-.301-.811-3.147-.732-2.742.077-6.464 1.165-9.526 2.786m50.452.308c-.041 1.787-.26 4.24-.486 5.45-.227 1.209-.041 2.429.413 2.709 1.321.816 16.147-8.305 16.147-9.933 0-1.178-1.614-1.476-8-1.476h-8l-.074 3.25m-163.521-1.095c-.443.715-.275.883.44.44.635-.392 1.646-.41 2.246-.039.642.397-.607 1.8-3.036 3.407-3.612 2.392-3.932 2.894-2.568 4.026 1.304 1.082 1.464 1.047.98-.214-.376-.981.557-2.227 2.672-3.566 3.023-1.914 3.348-1.941 4.63-.384.947 1.15 1.151 1.204.653.175-1.054-2.176-3.605-5-4.518-5-.432 0-1.107.52-1.499 1.155M85 186c0 1.169 12.109 1.197 19.5.046 4.001-.623 2.553-.805-7.25-.912-7.589-.083-12.25.246-12.25.866m34.5 1.513c-5.19 1.317-7.73 2.307-6 2.338 5.09.094 15.813-2.282 16.251-3.601.503-1.512.864-1.557-10.251 1.263m50.15 2.602c-3.218 1.66-5.614 3.254-5.326 3.542.728.729 12.676-4.732 12.676-5.794 0-1.325-1.028-1.011-7.35 2.252m50.013.469c-1.874 2.574-1.649 5.416.428 5.416.823 0 .791-.437-.111-1.524-2.01-2.422-.36-2.878 2.712-.749 4.577 3.17 5.072 3.33 5.652 1.818.359-.934.072-1.258-.814-.918-2.28.875-6.669-2.613-5.988-4.759.79-2.489.328-2.313-1.879.716m-18.382 2.914c-3.971 2.201-7.234 4.565-7.25 5.252-.017.688-.369 1.25-.781 1.25-.412 0-.75 1.575-.75 3.5s.346 3.5.77 3.5c.423 0 4.188-3.277 8.365-7.282 9.785-9.381 9.649-11.766-.354-6.22m-104.553-2.776c1.775.221 4.925.224 7 .008 2.074-.217.622-.397-3.228-.402-3.85-.004-5.548.173-3.772.394m30.624.906c-.632.259-4.007.786-7.5 1.171l-6.352.701-.137 4.75c-.13 4.523-.01 4.745 2.5 4.654 1.451-.053 5.112-.616 8.137-1.25l5.5-1.154.305-4.75c.295-4.6-.015-5.121-2.453-4.122m7.724 3.122c-.042 2.338.347 4.25.865 4.25 1.678 0 1.822-1.43.503-5l-1.292-3.5-.076 4.25M85 193.421c0 .927 1.067 3.256 2.372 5.176 2.189 3.221 2.415 3.326 2.927 1.368.745-2.849 5.201-2.39 5.201.535 0 2.836 1.295 3.467 7.153 3.485l5.154.015.346-4.872.347-4.873-7.5-.632c-4.125-.349-9.412-.915-11.75-1.26-3.566-.526-4.25-.355-4.25 1.058m-47.75 1.29c-.687.25-1.25.923-1.25 1.495 0 .656.52.608 1.411-.132.855-.709 1.643-.796 1.999-.219.324.524-1.032 2.252-3.013 3.841-3.1 2.487-3.393 3.062-2.104 4.132 1.228 1.02 1.471.947 1.352-.402-.08-.905 1.114-2.6 2.653-3.767 2.4-1.819 2.932-1.91 3.735-.64.515.814.943.997.952.405.023-1.652-4.326-5.227-5.735-4.713m174.622 4.95c-1.255 1.519-1.181 1.542.87.264 2.038-1.269 2.486-1.151 4.939 1.302 2.648 2.648 2.663 2.735.831 4.76l-1.866 2.062-3.323-3.221c-1.828-1.771-3.323-2.795-3.323-2.274 0 .52 1.52 2.159 3.378 3.641l3.377 2.695 2.122-2.26c2.714-2.888 2.679-3.237-.627-6.146-3.272-2.88-4.542-3.044-6.378-.823M85 199.941c0 .518.445 1.216.989 1.552.566.35.734-.051.393-.941-.665-1.732-1.382-2.049-1.382-.611m51.75 1.837c-2.387.503-2.226 3.222.191 3.222 1.068 0 2.163-.359 2.434-.798.828-1.339-.77-2.814-2.625-2.424m-91.878 2.972c-1.243 1.586-1.208 1.621.378.378 1.666-1.307 2.195-2.128 1.372-2.128-.207 0-.995.787-1.75 1.75m74.373.465c-6.914 1.062-7.498 2.791-.936 2.774 6.764-.018 11.691-1.122 11.691-2.62 0-1.537-1.6-1.559-10.755-.154m64.314.118c-1.664 1.217-5.997 10.667-4.89 10.667.261 0 2.493-1.183 4.961-2.629 2.98-1.746 4.298-3.116 3.928-4.082-.307-.799-.558-2.316-.558-3.371 0-2.257-.936-2.416-3.441-.585m-138.406 3.009c-3.015 3.111-3.119 3.439-1.504 4.75 1.307 1.061 1.538 1.082.938.084-.49-.814-.043-2.162 1.159-3.5 2.093-2.328 3.604-4.676 3.009-4.676-.199 0-1.82 1.504-3.602 3.342M85 205.883c0 .486 1.013 1.155 2.25 1.487 3.336.894 3.745.78 3.112-.87-.608-1.583-5.362-2.13-5.362-.617m10.675 1.713c.385 1.002 2.362 1.404 6.901 1.404 4.68 0 6.233-.33 5.878-1.25-.308-.796-2.815-1.306-6.9-1.404-5.139-.123-6.31.126-5.879 1.25m107.298.933-2.376 2.529 3.21 3.211c2.562 2.562 3.548 2.997 4.885 2.154 3.696-2.332 3.908-4.187.843-7.387-1.6-1.67-3.197-3.036-3.548-3.036s-1.708 1.138-3.014 2.529m.518.481c-1.767 1.952-1.752 2.083.519 4.5 2.666 2.839 4.227 3.114 5.941 1.049.953-1.148.737-2.062-1.066-4.5-2.67-3.613-3.014-3.679-5.394-1.049M66 208.393c0 .216.698.661 1.552.989.89.341 1.291.173.941-.393-.587-.951-2.493-1.406-2.493-.596m79.805.286c-2.265.597-1.149 3.321 1.361 3.321 1.178 0 1.679-.441 1.265-1.112-.378-.611-.067-1.504.691-1.984 1.136-.72 1.114-.856-.122-.773-.825.056-2.263.302-3.195.548m30.445.598c-1.238.566-2.25 1.41-2.25 1.876 0 .466-3.685.847-8.19.847-4.504 0-10.745.528-13.867 1.173l-5.678 1.172 1.979 4.578c3.259 7.535 2.959 7.471 15.266 3.301l10.99-3.724 2.316-4.851c1.274-2.667 2.174-4.974 2-5.125-.174-.152-1.328.187-2.566.753m-43.75 2.436c-3.85.813-12.709 1.548-19.687 1.633-7.323.089-12.319.527-11.817 1.037 1.006 1.021 37.635.236 40.254-.863.963-.404 1.75-1.361 1.75-2.127 0-1.662-1.314-1.622-10.5.32m-78.628 1.037c-1.243 1.586-1.208 1.621.378.378 1.666-1.307 2.195-2.128 1.372-2.128-.207 0-.995.787-1.75 1.75m2.67 1.118c-.326 1.028-1.482 2.672-2.568 3.655-2.403 2.176-2.48 3.069-.333 3.893 1.292.495 1.402.341.519-.724-.869-1.046-.489-1.961 1.678-4.036 1.54-1.476 3.205-2.34 3.698-1.92.494.42.295-.023-.441-.986-1.673-2.185-1.824-2.178-2.553.118M73 212.563c0 1.434 19.96 9.796 28.632 11.995 5.327 1.352 9.809 2.334 9.96 2.183.151-.151-2.519-2.573-5.934-5.383-5.074-4.176-7.167-5.24-11.459-5.831-2.889-.397-7.602-1.348-10.475-2.113-5.36-1.427-10.724-1.852-10.724-.851M91 213c1.375.44 3.4.814 4.5.83l2 .029-2-.859c-1.1-.473-3.125-.846-4.5-.83l-2.5.029L91 213m106.435 2.578c2.425 2.425 3.732 5.342 2.957 6.597-.43.695-.254.858.453.42.635-.392 1.155-1.155 1.155-1.695 0-1.391-4.199-6.9-5.259-6.9-.486 0-.174.71.694 1.578m-61.435.473c-2.475.44-10.8.848-18.5.905l-14 .104 4.5 3.939c7.063 6.183 9.521 7.009 20.651 6.941 9.41-.057 18.804-1.061 19.867-2.124.274-.274-.518-2.809-1.76-5.634-2.442-5.554-2.543-5.593-10.758-4.131m55.027 1.538c.015.501 1.337 2.486 2.938 4.411 2.4 2.886 3.142 3.27 4.223 2.191 1.082-1.08 1.049-1.217-.188-.783-.933.328-2.539-.844-4.25-3.102-1.512-1.995-2.738-3.218-2.723-2.717m-127.443 2.052c-.527 1.373-.38 1.435.893.378 1.735-1.44 1.916-2.019.63-2.019-.491 0-1.176.739-1.523 1.641m1.64 3.392c-3.035 5.272-2.808 6.29.362 1.625 1.603-2.358 3.124-3.599 4-3.263 2.013.772 1.753-.143-.362-1.275-1.457-.78-2.177-.255-4 2.913m119.63-1.795c-1.493 1.017-1.412 1.473.883 4.941 2.592 3.916 3.684 4.567 4.756 2.832.336-.543.015-.759-.714-.48-.757.291-2.101-.805-3.136-2.558-1.437-2.433-1.562-3.366-.604-4.519 1.414-1.704 1.088-1.764-1.185-.216m-3.839 2.953c-.008.93.435 1.969.985 2.309 1.266.782 1.266-.542 0-2.5-.835-1.293-.971-1.266-.985.191m-107.987 3.755c-1.107 2.17-1.621 4.187-1.142 4.483.479.296 1.128-.75 1.443-2.325.315-1.574 1.302-3.592 2.193-4.483.892-.892 1.148-1.621.57-1.621s-1.957 1.776-3.064 3.946m6.191-1.884c1.61.939 1.614 1.221.061 4.478-1.308 2.743-2.092 3.354-3.719 2.902-1.655-.46-1.765-.366-.561.477 2.329 1.63 2.82 1.354 4.926-2.773 1.952-3.827 1.419-6.197-1.376-6.116-.578.017-.277.482.669 1.032m94.232.703c-.693.486-.289 2.263 1.191 5.235 2.608 5.238 3.064 4.934.784-.523-1.291-3.09-1.336-3.918-.25-4.607.728-.462.874-.839.324-.839s-1.472.33-2.049.734M170 229.441c0 .793.408 1.693.907 2.001.498.309.671-.34.383-1.441-.611-2.335-1.29-2.63-1.29-.56m-84.385 1.12c-.56 1.459-.424 1.526.886.438 2.135-1.771 2.751-.792 1.527 2.427-.565 1.487-.993 3.462-.951 4.389.042.927.606-.07 1.254-2.216.672-2.227 2.033-4.235 3.173-4.679 1.308-.511 1.479-.808.496-.863-.825-.047-2.45-.339-3.612-.651-1.438-.386-2.323-.017-2.773 1.155m79.986 3.782c.893 2.621 1.8 4.589 2.016 4.373.522-.521-1.654-6.957-2.765-8.177-.481-.529-.144 1.183.749 3.804m-68.58 1.579c-1.15 4.27-.763 6.089 1.288 6.063.811-.011.765-.285-.144-.862-1.047-.663-1.107-1.675-.277-4.678.582-2.108.875-4.016.651-4.24-.224-.224-.907 1.449-1.518 3.717m61.545-1.672c1.628 5.227 2.455 6.749 3.659 6.735.88-.011.933-.243.17-.75-.608-.404-1.655-2.422-2.328-4.485-.672-2.062-1.443-3.75-1.712-3.75-.269 0-.174 1.012.211 2.25m-56.222-.543c1.539.397 1.731 1.081 1.158 4.132-.377 2.011-1.207 4.029-1.844 4.485-.79.565-.697.703.296.434 1.627-.441 3.455-6.25 2.638-8.38-.291-.758-1.331-1.326-2.311-1.262-1.642.107-1.638.153.063.591m44.212 1.203c-.309.5-.374 1.513-.143 2.25.231.737.691 2.578 1.023 4.09.331 1.512 1.099 2.75 1.705 2.75.74 0 .78-.412.122-1.25-.54-.687-1.253-2.683-1.584-4.434-.47-2.486-.227-3.283 1.109-3.634 1.585-.417 1.586-.459.021-.566-.93-.064-1.944.293-2.253.794m6.523.673c.048 1.165.285 1.402.604.605.289-.722.253-1.585-.079-1.917-.332-.332-.568.258-.525 1.312m-40.276 1.667c.479 1.748.695 1.873.968.561.194-.928 1.112-1.888 2.04-2.134 1.004-.264.611-.492-.967-.561-2.29-.1-2.572.194-2.041 2.134m27.172-1.592c.564.28 1.025 2.24 1.025 4.356 0 3.194-.382 3.92-2.25 4.28-1.892.365-1.804.455.555.57 2.732.132 2.797.016 2.5-4.536-.182-2.783-.82-4.774-1.58-4.925-.701-.139-.814-.024-.25.255M122.158 238c0 1.375.227 1.938.504 1.25.278-.687.278-1.812 0-2.5-.277-.687-.504-.125-.504 1.25m2.727 2.75c.432 5.125.759 4.881 1.342-1 .218-2.201-.065-3.75-.685-3.75-.65 0-.903 1.829-.657 4.75m9.347-1.75c0 1.925.206 2.713.457 1.75.252-.963.252-2.537 0-3.5-.251-.963-.457-.175-.457 1.75m19.768.917c0 1.054-.562 2.143-1.25 2.421-.747.301-.545.536.5.583 1.221.055 1.75-.677 1.75-2.421 0-1.375-.225-2.5-.5-2.5s-.5.863-.5 1.917m-41.664 2.073c.111 1.69.806 2.555 2.164 2.692 1.439.146 1.527.062.311-.301-.928-.277-1.902-1.489-2.163-2.692-.399-1.835-.449-1.786-.312.301" fill="#1976D2" fill-rule="evenodd"/><path fill-opacity=".296" d="M108.635 6.039c-10.121 1.584-24.669 5.861-34.3 10.085C47.974 27.685 23.718 50.985 11.48 76.5c-15.072 31.426-15.275 68.53-.552 101 7.814 17.234 26.714 39.265 43.072 50.207C76.225 242.573 100.879 250 128 250c34.718 0 65.856-12.335 90.074-35.68 18.153-17.5 28.435-35.105 34.525-59.113 1.321-5.205 2.401-10.981 2.401-12.835 0-1.855.45-3.372 1-3.372.615 0 .994-4.906.985-12.75-.011-8.601-.331-12.262-.985-11.25-.724 1.121-.973.585-.985-2.122-.008-1.992-1.094-7.875-2.413-13.073-6.039-23.808-16.49-41.749-34.313-58.905C200.721 23.99 179.87 12.986 155 7.499c-8.811-1.944-37.496-2.847-46.365-1.46m9.615 4.65c1.285.336 1.75 1.482 1.75 4.311 0 2.829-.465 3.975-1.75 4.311-.963.251.162.509 2.5.573 4.012.11 4.246-.038 4.187-2.634l-.064-2.75-1.05 2.5c-1.138 2.707-1.338 2.423-2.286-3.25-.513-3.062-1.032-3.729-2.832-3.634-1.692.089-1.798.222-.455.573m11.243 3.352c-.845 5.001.125 6.212 4.63 5.782 3.288-.314 3.377-.442 3.377-4.823 0-4.456-.035-4.503-3.653-4.805-3.572-.297-3.668-.212-4.354 3.846M131 15c0 3.6.25 4 2.5 4s2.5-.4 2.5-4-.25-4-2.5-4-2.5.4-2.5 4m13.356-3.29c1.48.381 1.733 1.093 1.25 3.509-.333 1.667-.606 3.473-.606 4.013s-.675.723-1.5.406c-.825-.316-1.5-.139-1.5.393 0 .533 1.35.969 3 .969s3.338.113 3.75.25c.412.137.876-.875 1.029-2.25.257-2.295.166-2.356-1.11-.75-2.098 2.642-2.473 2.145-1.674-2.223.821-4.487.532-5.075-2.412-4.911-1.836.102-1.863.173-.227.594m-45.72 1.981c1.438.281 2.336 1.421 2.75 3.489.871 4.355.815 4.612-1.136 5.208-.963.294.05.287 2.25-.016 4.932-.679 5.073-.815 3.725-3.612l-1.09-2.26-.067 2.25c-.112 3.718-1.767 2.537-2.452-1.75-.573-3.584-.924-3.986-3.378-3.864-2.181.109-2.303.222-.602.555m56.961.453c-.231.746-.893 2.836-1.471 4.645-.976 3.06-.865 3.36 1.584 4.291 4.078 1.55 5.706.737 6.721-3.36 1.047-4.225.453-5.237-3.672-6.255-1.9-.47-2.87-.261-3.162.679m.438 3.69c-.539 1.954-.88 3.635-.758 3.736.123.1 1.186.477 2.364.838 1.761.541 2.337.093 3.25-2.525 1.517-4.353 1.455-4.584-1.383-5.126-2.155-.412-2.624.004-3.473 3.077m-69.87-.957c-1.027.651-.887.963.609 1.354 2.164.565 4.062 5.99 2.301 6.577-.591.197-1.075.748-1.075 1.223 0 .705 5.615-.612 6.841-1.604.188-.152-.004-1.323-.426-2.602l-.768-2.325-.708 2.5c-.675 2.385-.789 2.305-2.475-1.75-1.865-4.484-2.169-4.723-4.299-3.373m80.444 4.143c-.885 2.211-1.609 4.192-1.609 4.402 0 .426 5.877 2.578 7.041 2.578.745 0 4.298-8.04 3.751-8.489-1.193-.98-4.923-2.511-6.118-2.511-.801 0-2.181 1.809-3.065 4.02m1.469.188c-.972 2.786-.886 3.46.581 4.532 2.562 1.873 3.073 1.603 4.363-2.307 1.31-3.97 1.326-3.924-1.663-4.841-1.769-.543-2.339-.089-3.281 2.616m-92.578-.03c-1.1.614-2.183 1.271-2.406 1.459C72.413 23.21 76.24 31 77.202 31c.493 0 2.228-.688 3.853-1.529l2.956-1.528-2.026-3.972c-2.126-4.167-3.198-4.629-6.485-2.793m.281.884c-1.609.938-1.613 1.223-.064 4.47 1.85 3.88 2.15 4.017 4.709 2.146 1.702-1.244 1.711-1.512.166-4.5-1.78-3.441-2.211-3.631-4.811-2.116m102.935 2.842c-2.349 3.976-2.157 5.574.831 6.935 3.774 1.72 4.228 1.523 6.426-2.787l2.014-3.947-2.216-1.553c-3.246-2.274-5.126-1.913-7.055 1.352m1.003 1.238c-.98 1.721-1.655 3.227-1.5 3.346 3.051 2.355 4.293 2.199 6.097-.767 1.808-2.974 1.812-3.154.094-4.411-2.464-1.801-2.669-1.721-4.691 1.832M119 26.743c-6.166.459-15.315 2.302-22 4.433C89.867 33.449 87.337 35 90.762 35c1.189 0 5.645 1.106 9.903 2.458l7.742 2.459 5.546-5.278c3.051-2.903 6.443-5.775 7.539-6.383 2.558-1.421 1.871-1.837-2.492-1.513m3.946 2.127c-5.35 3.453-12.512 10.815-9.446 9.709 11.739-4.238 40.942-7.967 47.25-6.035 1.402.429 2.25.268 2.25-.427 0-.615-1.012-1.184-2.25-1.265a323.196 323.196 0 0 1-3.75-.268c-.825-.066-3.075-.659-5-1.317C148.689 28.135 133.968 26 129.472 26c-1.144 0-4.081 1.292-6.526 2.87M62.25 27.662c-1.959.791-1.462 2.206.587 1.67 1.214-.317 2.422.415 3.566 2.161 1.448 2.209 1.515 2.902.414 4.237-1.369 1.659-1.121 1.61 3.433-.673 3.184-1.596 3.37-2.298 1.106-4.177-1.462-1.213-1.565-1.115-.933.878 1.065 3.355-.622 2.682-3.182-1.27-2.273-3.509-2.699-3.75-4.991-2.826m127.107 3.937-2.746 3.599 2.445 1.879c1.344 1.033 2.984 1.889 3.643 1.901 1.137.021 6.301-5.959 6.301-7.297 0-.6-5.355-3.681-6.399-3.681-.275 0-1.735 1.62-3.244 3.599m1.526.565c-2.175 3.054-2.181 3.145-.301 4.526 1.718 1.262 2.153 1.137 4.168-1.196 2.746-3.18 2.775-3.685.301-5.23-1.7-1.061-2.232-.819-4.168 1.9M53.25 33.944c-2.87 2.394-2.83 2.937.504 6.931l2.755 3.299 2.745-2.159c3.379-2.658 3.389-3.097.157-6.938-3.012-3.58-3.189-3.613-6.161-1.133m87.638.065c-4.187.401-11.162 1.566-15.5 2.59l-7.888 1.86 15.5.689c8.525.379 18.65 1.4 22.5 2.27 8.936 2.02 8.511 2.108 7.46-1.556-2.029-7.078-3.956-7.588-22.072-5.853m-87.161 1.084c-1.677.976-1.66 1.193.318 3.97 2.356 3.309 2.853 3.463 5.328 1.653 1.658-1.212 1.637-1.434-.381-4-2.365-3.006-2.708-3.112-5.265-1.623M162 34.941c0 .518.399 1.188.887 1.489.487.301 1.177 2.097 1.532 3.989.579 3.09 1.179 3.617 5.863 5.151 11.033 3.613 25.567 12.2 33.468 19.773 3.509 3.363 4.25 3.731 4.25 2.109 0-3.61-1.929-8.746-4.226-11.256-4.256-4.648-18.25-14.445-26.178-18.326C170.037 34.169 162 32.659 162 34.941m41.757 1.216c1.885 1.885-2.335 7.094-5.102 6.298-1.776-.511-1.628-.172.845 1.927 3.653 3.1 3.713 3.107 5.268.618 1.367-2.19.344-2.712-1.568-.8-2.125 2.125-1.277-.41 1.242-3.713 1.831-2.401 2.157-3.488 1.3-4.345-.628-.628-1.592-1.142-2.142-1.142-.576 0-.51.49.157 1.157M77.088 39.975c-6.89 4.196-12.45 9.051-8.588 7.5 5.767-2.317 21.008-5.642 28.298-6.174 4.564-.332 7.939-.952 7.5-1.375-1.333-1.287-12.835-3.928-16.942-3.891-2.678.025-5.814 1.228-10.268 3.94m37.912.646c0 .494 4.388 2.238 9.75 3.875 5.363 1.637 14.617 5.076 20.565 7.642l10.815 4.666 2.9-4.004c2.893-3.993 4.51-7.593 3.753-8.351C160.24 41.907 115 38.282 115 40.621m-73.12 3.023c-1.204 1.452-1.123 1.568.695.991 1.458-.463 2.739.07 4.389 1.826 2.039 2.171 2.155 2.695.933 4.201-.831 1.024-.081.757 1.853-.659 3.715-2.72 3.877-3.237 1.606-5.123-1.462-1.213-1.565-1.115-.933.878.974 3.069-.073 2.811-3.076-.758-2.904-3.45-3.588-3.62-5.467-1.356m46.284-.13c-4.034.728-7.543 1.532-7.796 1.785-.254.254 1.088.752 2.982 1.107 2.371.445 5.046.014 8.584-1.38 2.827-1.114 5.911-1.993 6.853-1.953.942.04-.722.937-3.697 1.994-6.706 2.38-6.921 2.597-3.929 3.96 2.073.945 3.155.629 7.571-2.212 2.833-1.823 5.175-3.54 5.205-3.815.111-1.045-8.732-.757-15.773.514m23.078-.689c-.99.632-1.035 2.984-.208 11.039 2.134 20.798 2.317 21.668 4.493 21.327 3.358-.527 17.889-5.119 19.473-6.155 1.212-.792-.904-3.418-11-13.655-6.875-6.971-11.125-11.741-9.445-10.599 1.681 1.142 7.671 6.869 13.312 12.725l10.256 10.648 6.77-4.022c10.003-5.943 10.353-6.664 4.469-9.221-9.384-4.078-22.507-8.895-28.374-10.415-3.258-.844-6.501-1.747-7.206-2.006-.705-.258-1.848-.108-2.54.334m-9.749 3.325c-2.196 1.648-4.668 3.388-5.493 3.866-1.281.742-1.208 1.091.5 2.394 1.1.84 2.27 1.541 2.601 1.558.697.037 7.121-10.079 6.68-10.52-.162-.162-2.092 1.053-4.288 2.702m2.838 2.473-4.169 6.117 2.93 3.556c3.282 3.981 7.883 13.276 7.898 15.954.006.963.371 1.75.811 1.75.633 0-.835-15.246-3.031-31.498-.206-1.521-1.264-.539-4.439 4.121m109.071-4.056c.43 1.441-.134 2.772-1.863 4.397-2.156 2.025-2.713 2.152-4.26.971-.978-.747-.49.053 1.086 1.778 1.588 1.739 3.482 2.899 4.25 2.605 2.328-.894 1.542-2.501-.865-1.77-1.927.584-1.754.162 1.205-2.942 3.324-3.487 3.386-3.69 1.643-5.365-1.729-1.66-1.784-1.645-1.196.326M164 46.423c0 .783-1.606 3.527-3.568 6.099-1.963 2.571-3.426 4.8-3.25 4.953.175.154 2.343 1.291 4.818 2.527 6.758 3.377 20.835 12.707 26.608 17.637C193.42 81.747 194.067 82 199.786 82h6.071l1.265-5.655 1.265-5.654-4.943-4.369c-7.999-7.069-18.132-13.426-27.855-17.475-10.061-4.19-11.589-4.51-11.589-2.424M68 48.92c-4.558 1.831-8.946 7.366-8.984 11.33-.021 2.327.411 2.237 5.304-1.108 2.299-1.572 6.396-4.031 9.105-5.464 3.733-1.976 4.519-2.762 3.25-3.249-.921-.354-1.675-1.27-1.675-2.036 0-1.802-1.482-1.69-7 .527m-6.441.612c-1.068.807-1.46 1.468-.873 1.468.588 0 1.629-.675 2.314-1.5 1.557-1.876 1.067-1.866-1.441.032m-28.406 2.715c-1.717 1.717-1.395 3.199.376 1.729 1.269-1.053 1.952-.873 4.01 1.06 1.596 1.5 2.274 2.977 1.903 4.147-.851 2.682.138 2.215 2.583-1.218 1.755-2.465 1.929-3.315.926-4.524-.68-.819-1.461-1.264-1.736-.989-.275.275.069 1.186.765 2.024 1.038 1.25.995 1.524-.235 1.524-.825 0-2.081-.7-2.79-1.555-2.13-2.566-4.526-3.474-5.802-2.198M77.5 52.3C72.162 55.455 59 64.178 59 64.561 59 65.605 66.345 73 67.382 73 68.57 73 80 61.817 80 60.654c0-.359-1.125-.654-2.5-.654-2.082 0-2.5-.477-2.5-2.849v-2.848l5.654.886c3.903.612 6.866 1.847 9.565 3.984 3.041 2.409 4.174 2.83 5.096 1.893 1.67-1.698-3.748-6.381-6.407-5.537-1.38.438-1.745.209-1.34-.844.373-.972-.498-1.814-2.656-2.566-3.903-1.36-4.844-1.337-7.412.181m-23.641 4.932c-9.364 7.597-20.261 23.902-24.809 37.122-2.818 8.193-.959 8.385 3.214.333 4.994-9.637 12.617-19.576 19.817-25.839C56.077 65.372 58 62.958 58 61.415c0-1.257.463-3.502 1.028-4.989s.839-2.892.609-3.123c-.231-.23-2.831 1.537-5.778 3.929m163.891-1.908c-3.345 2.738-3.413 3.704-.458 6.48l2.292 2.153 3.708-2.638c2.039-1.451 3.693-2.904 3.675-3.229-.075-1.333-3.884-5.087-5.127-5.054-.737.02-2.578 1.049-4.09 2.288m1.068.964c-2.309 1.904-2.502 2.455-1.39 3.962 1.639 2.22 2.494 2.165 5.522-.355 1.892-1.575 2.217-2.407 1.428-3.657-1.517-2.406-2.593-2.396-5.56.05M151.5 61.16c-2.2 1.663-5.8 3.938-8 5.055-2.2 1.117-4.139 2.152-4.31 2.301-.17.148 3.134 4.674 7.341 10.056 8.536 10.92 15.663 21.292 20.049 29.177 1.606 2.887 3.28 5.249 3.72 5.25.439.001 2.127-.686 3.75-1.525 2.936-1.518 2.95-1.568 2.95-10.549 0-9.869 1.153-13.327 5.615-16.837 1.46-1.148 4.014-2.088 5.675-2.088 2.88 0 2.942-.086 1.338-1.859-3.87-4.276-31.396-22.338-33.628-22.065-.275.033-2.3 1.422-4.5 3.084m-124.693-.41c-2.899 3.376-2.771 4.008 1.366 6.746l4.141 2.74 1.821-2.368c2.503-3.255 2.328-4.402-1.039-6.8-3.539-2.52-4.362-2.561-6.289-.318m.341 1.384c-1.422 2.277-1.342 2.4 3.273 5.026 1.538.876 2.195.72 3.297-.783 1.226-1.671 1.071-2.123-1.42-4.122-3.434-2.756-3.503-2.757-5.15-.121m53.46.746c-1.585 1.752-1.518 1.915 1.26 3.065 1.614.669 3.949 2.295 5.188 3.615 2.106 2.242 2.343 2.285 3.614.669 1.22-1.55 1.299-1.454.76.928-.7 3.1.998 6.843 3.105 6.843 4.271 0-2.092-11.258-8.35-14.776-3.789-2.13-3.951-2.14-5.577-.344M96 62.126c0 .619 1.463 4.194 3.25 7.944 2.143 4.496 3.846 6.837 5 6.874 2.114.068 2.103.307.23-5C102.104 65.21 96 58.142 96 62.126m112.682 3.571c.49 3.577 1.799 6.131 5.489 10.711 5.923 7.35 10.473 14.915 14.361 23.878 1.619 3.732 3.1 6.317 3.291 5.745.604-1.811-3.791-14.226-7.976-22.531-3.537-7.021-14.099-22.5-15.352-22.5-.251 0-.167 2.114.187 4.697m21.555-1.522c.859 2.238-4.826 5.411-6.783 3.786-2.226-1.846-1.72.194.841 3.395 2.141 2.675 2.377 2.745 3.737 1.105 1.324-1.595 1.254-1.687-.79-1.038-3.465 1.1-2.65-.749 1.258-2.853 3.56-1.917 4.44-3.871 2.33-5.175-.762-.471-.969-.198-.593.78m-180.95 9.204c-8.566 9.049-13.463 15.857-17.874 24.851-2.691 5.488-2.742 5.856-1.229 8.996 1.957 4.061 9.575 12.779 11.151 12.76.641-.007 1.981-2.595 2.979-5.75.997-3.155 3.728-9.561 6.068-14.236 3.489-6.973 4.178-9.258 3.834-12.717-.531-5.334 2.384-10.391 7.347-12.746l3.531-1.675-2.488-1.957c-1.368-1.077-2.77-2.845-3.114-3.931-.345-1.086-.997-1.974-1.451-1.974-.453 0-4.392 3.77-8.754 8.379M19.526 71.95C18.687 73.573 18 75.139 18 75.43c0 .528 7.46 4.57 8.434 4.57.628 0 3.844-6.092 3.39-6.419C28.166 72.385 22.131 69 21.658 69c-.334 0-1.293 1.328-2.132 2.95m52.323-.601c-1.61 2.209-1.561 2.303 2 3.816C78.674 77.216 86 78.329 86 77.012c0-1.462-3.711-4.954-6.29-5.918-5.454-2.04-6.206-2.016-7.861.255m58.151.866c-4.125 1.539-9.197 3.079-11.272 3.423-2.075.343-4.014 1.016-4.31 1.494-.491.795 1.994 20.32 3.261 25.618.533 2.23.699 2.25 18.479 2.25 19.903 0 21.978.499 25.939 6.235a523.25 523.25 0 0 0 2.504 3.606c.136.188 1.183.045 2.326-.318 2.053-.652 2.046-.714-.608-5.341-4.83-8.421-16.085-24.527-22.517-32.223l-6.302-7.541-7.5 2.797m-109.774.794c-1.131 1.812-.904 2.177 2.319 3.714 3.105 1.481 3.694 1.512 4.499.24 1.426-2.254 1.183-2.794-1.994-4.437-3.648-1.887-3.323-1.919-4.824.483M208.22 77.03c-.615 2.423-.964 4.559-.776 4.747.187.188 2.467.202 5.065.032l4.723-.309-3.946-4.438-3.947-4.438-1.119 4.406m24.03-2c-2.338 1.038-4.25 2.154-4.25 2.479 0 .996 3.018 6.491 3.566 6.491.974 0 8.434-4.042 8.434-4.57 0-.675-2.976-6.454-3.276-6.359-.123.038-2.136.92-4.474 1.959m.5 1.269c-2.894 1.144-3.32 2.251-1.794 4.664.805 1.272 1.394 1.241 4.499-.24 3.223-1.537 3.45-1.902 2.319-3.714-1.397-2.237-1.222-2.212-5.024-.71m-120.919 2.865c-.449 3.171-4.745 3.882-5.521.915-.693-2.65-3.334-2.702-4.02-.079-.629 2.405-5.29 2.845-5.29.5 0-.833-.889-1.5-2-1.5-1.333 0-2 .667-2 2 0 1.42-.667 2-2.3 2-1.265 0-2.746-.446-3.29-.99-.653-.653-2.268 2.25-4.748 8.539-3.691 9.355-3.766 9.817-4.145 25.438l-.387 15.91 4.278.642c9.326 1.398 9.055 1.798 9.37-13.789l.278-13.75h12.491c12.433 0 12.489-.01 11.999-2.25-.271-1.237-1.221-7.425-2.111-13.75-.89-6.325-1.766-11.651-1.946-11.836-.18-.185-.476.715-.658 2m-33.495.905c2.353 3.36 2.092 8.999-.602 12.998-4.326 6.419-13.48 7.542-19.586 2.404l-2.911-2.45-3.688 7.017c-5.279 10.047-8.916 21.096-7.303 22.189 1.895 1.285 8.604 4.773 9.18 4.773.279 0 .634-4.838.79-10.75l.284-10.75 10.801-.5 10.801-.5 4.92-12.446c2.706-6.845 4.745-12.621 4.531-12.834-.213-.214-2.299-.644-4.635-.958l-4.247-.569 1.665 2.376m-64.301 2.865c-1.807 3.378-1.145 4.719 3.166 6.413 4.665 1.832 5.488 1.457 6.359-2.899.541-2.702.271-3.107-2.802-4.219-4.582-1.657-5.511-1.559-6.723.705m1.042.923c-1.509 2.82-1.49 2.852 2.542 4.182 2.946.973 3.78.941 4.485-.172 1.352-2.136 1.053-3.589-.854-4.137a39.457 39.457 0 0 1-3.423-1.194c-1.127-.465-2.026-.033-2.75 1.321M217 86.382c0 1.925-.367 3.727-.816 4.004-.449.278-4.836.597-9.75.711-9.125.211-11.434.958-11.434 3.7 0 1.19.583 1.004 2.5-.797 1.375-1.292 2.5-1.899 2.5-1.349s-1.125 2.057-2.5 3.349c-1.375 1.292-2.5 3.395-2.5 4.674 0 2.213.34 2.326 7 2.326 3.85 0 7-.277 7-.616 0-.339-1.676-2.926-3.724-5.75-2.049-2.824-2.911-4.485-1.916-3.692.995.794 3.142 3.381 4.772 5.75 1.63 2.37 3.617 4.308 4.416 4.308.887 0 1.452.985 1.452 2.53 0 1.392 1.104 5.153 2.454 8.36 1.349 3.206 3.202 8.811 4.118 12.455.915 3.645 2.07 6.377 2.565 6.07 1.501-.928 5.584-9.649 7.332-15.662l1.646-5.661-2.927-6.967c-3.32-7.901-9.748-19.735-11.212-20.64-.564-.348-.976.877-.976 2.897m25.015-.107c-.02 2.385-4.899 4.26-7.265 2.793-2.064-1.28-2.066-1.272-.652 2.783 1.14 3.269 2.348 3.799 4.902 2.149 1.213-.784 1.069-.972-.75-.985-3.565-.024-2.621-1.587 1.75-2.897 4.226-1.266 4.553-1.715 3-4.118-.826-1.278-.972-1.237-.985.275M17.559 95.562c2.018 1.624 1.856 1.626-7 .1-.517-.089-1.104.738-1.303 1.838-.262 1.44-.11 1.631.541.683 1.317-1.92 7.751-.087 7.564 2.154-.246 2.941 1.368 1.77 2.014-1.462.92-4.598.83-4.875-1.566-4.875-2.148 0-2.153.031-.25 1.562M240 97.895c-1.475.41-2.466 1.394-2.417 2.4.304 6.212.123 6.008 4.667 5.282 5.364-.857 6.115-1.638 5.272-5.478-.717-3.264-2.176-3.691-7.522-2.204m1.163 1.246c-2.394.69-3.172 1.394-2.75 2.492.323.842.587 1.933.587 2.424 0 .935 5.975.143 7.217-.956.825-.731-.13-5.147-1.084-5.011-.348.05-2.135.523-3.97 1.051M25.5 106c-.38 1.729-.465 3.368-.19 3.643.275.275.81-.914 1.19-2.643.38-1.729.465-3.368.19-3.643-.275-.275-.81.914-1.19 2.643M13 106c0 .55.675 1 1.5 1s1.5.366 1.5.813c0 .447-2.125.784-4.721.75-3.959-.053-4.781.26-5.09 1.937-.346 1.879-.288 1.893.975.226 1.02-1.346 2.127-1.618 4.59-1.125 1.851.37 3.246 1.266 3.246 2.083 0 .789.45 1.156 1 .816 1.615-.998 1.175-6.219-.582-6.893-2.134-.819-2.418-.773-2.418.393m13.903 3.75c-3.495 9.179-4.316 16.176-3.137 26.725.64 5.732 1.794 11.928 2.563 13.769C27.697 153.52 38.492 166 39.956 166c.408 0 .317-2.588-.201-5.75-1.119-6.824-.342-29.273 1.186-34.25 1.025-3.344.899-3.661-2.829-7.113-2.146-1.987-5.134-5.475-6.64-7.75-1.506-2.275-2.914-4.137-3.13-4.137-.215 0-.863 1.237-1.439 2.75m215.097.128c-2.057.593-2.44 1.244-2.164 3.671.462 4.058 1.037 4.42 5.966 3.755 4.241-.573 4.298-.633 4-4.193-.255-3.049-.691-3.638-2.802-3.782-1.375-.095-3.625.152-5 .549m2.25.911c-2.685.279-3.25.761-3.25 2.774 0 2.176.428 2.437 4 2.437 3.574 0 4-.26 4-2.441 0-2.914-.508-3.21-4.75-2.77m-73.469 3.045-5.72 2.666-.03 27.167-.031 27.167 5.75-2.226 5.75-2.226.273-17.569.272-17.569-3.522-7.626c-4.5-9.742-4.461-11.335.052-2.138l3.425 6.98v-8.73c0-4.801-.113-8.692-.25-8.646-.137.046-2.824 1.283-5.969 2.75M195 133.964c0 12.67.25 23.036.555 23.036 1.537 0 13.134-8.759 18.899-14.274 7.804-7.467 7.898-8.093 3.271-21.726l-3.225-9.5-9.75-.286-9.75-.286v23.036M.389 127.5c.001 7.15.161 9.944.353 6.208.193-3.735.192-9.585-.003-13-.194-3.414-.352-.358-.35 6.792m229.955-6.825c-1.096 3.204-3.212 7.751-4.701 10.106-2.524 3.991-2.732 5.175-3.076 17.5-.273 9.79-.992 15.619-2.774 22.469-1.323 5.088-2.09 9.25-1.703 9.25 2.343 0 9.473-14.766 13.006-26.933 5.019-17.286 4.324-47.228-.752-32.392m-217.903-2.143c1.796 1.358 1.59 1.468-2.75 1.468-4.466 0-4.688.132-4.628 2.75.057 2.467.15 2.538.898.689.678-1.674 1.511-1.982 4.437-1.641 2.452.287 3.629.945 3.688 2.061.047.903.495.291.995-1.359 1.185-3.91.513-5.507-2.3-5.468-2.221.031-2.23.07-.34 1.5m99.625 3.344c-.586 1.096-1.066 3.602-1.066 5.57v3.578l4.25-.64c5.556-.836 5.943-1.299 4.982-5.955-.715-3.466-1.181-3.965-3.955-4.237-2.318-.228-3.424.214-4.211 1.684m9.214 2.174c.303 2.263.765 4.328 1.025 4.589.519.518 10.407-1.836 17.996-4.285 7.836-2.528 5.407-3.821-7.769-4.137l-11.804-.283.552 4.116M240.829 126c.298 3.125.795 4 2.276 4 1.042 0 1.895-.45 1.895-1s-.675-1-1.5-1-1.5-.45-1.5-1 2.025-1 4.5-1c4.034 0 4.488-.233 4.384-2.25-.087-1.693-.229-1.817-.573-.5-.608 2.325-8.311 2.556-8.311.25 0-.825-.349-1.5-.776-1.5-.427 0-.605 1.8-.395 4M42.63 123.79c-2.56 4.142-3.176 33.531-.872 41.596 1.426 4.99 17.935 13.321 31.92 16.108l3.179.633-1.609-5.032-1.61-5.033-11.069-.281L51.5 171.5l-.305-4.75c-.241-3.761.019-4.75 1.25-4.75C53.79 162 54 159.731 54 145.208v-16.791l-5.46-2.678c-3.003-1.473-5.662-2.35-5.91-1.949m90.747 3.448-11.123 2.973 2.92 13.645c1.607 7.504 3.125 14.994 3.374 16.644l.454 3-1.002-3c-.551-1.65-2.158-8.625-3.57-15.5s-2.726-13.005-2.918-13.622c-.254-.81-1.762-.843-5.432-.118l-5.08 1.005V164h8.822c5.484 0 10.608.609 13.544 1.609 5.624 1.916 11.934 7.446 11.069 9.699-.45 1.175-.093 1.415 1.486 1.002 1.143-.299 2.079-.967 2.079-1.486 0-.518.467-.653 1.038-.3.571.353 3.384.042 6.25-.691l5.212-1.333-7-.5-7-.5-.268-23.75c-.148-13.062-.598-23.69-1-23.617-.403.073-5.737 1.47-11.855 3.105m-127.71 2.429c-.367.366-.667 2.166-.667 4 0 3.328.008 3.333 4.941 3.333 2.718 0 5.139-.338 5.381-.75s.217-2.213-.055-4c-.467-3.075-.721-3.25-4.714-3.25-2.321 0-4.52.3-4.886.667m3.023 1.055c-2.218.333-2.745.881-2.5 2.6.246 1.726 1.088 2.242 4.06 2.488 3.584.297 3.75.175 3.75-2.75 0-1.861-.49-3.001-1.25-2.91-.687.082-2.515.34-4.06.572m69.896 3.026c-.322.322-.586 6.599-.586 13.95 0 10.957.27 13.468 1.5 13.94 1.051.404 1.5 2.042 1.5 5.469 0 4.77-.075 4.893-3 4.893-3.458 0-3.651.979-1.224 6.227l1.724 3.727 6.448-5.039 6.447-5.039-.285-18.688c-.157-10.278-.359-18.738-.448-18.8-.747-.516-11.624-1.093-12.076-.64M240 137.5c0 2.997.323 3.483 2.25 3.384 1.693-.087 1.817-.229.5-.573-3.694-.966-1.595-2.465 3-2.144 4.419.31 4.773.159 5.079-2.167.305-2.323.231-2.371-1.044-.671-1.597 2.126-8.463 2.059-8.035-.079.137-.687-.2-1.25-.75-1.25s-1 1.575-1 3.5m-25.393 6.392c-3.207 3.241-8.905 7.854-12.663 10.25l-6.831 4.358-.306 6.5-.307 6.5H186c-7.982 0-8.519-.133-8.811-2.188-.311-2.183-.322-2.184-4.5-.396-2.304.986-8.295 3.047-13.314 4.581-8.178 2.499-9.125 3.036-9.125 5.179 0 3.245-2.586 5.861-8.388 8.483-2.674 1.209-4.862 2.5-4.862 2.87 0 .697 2.128 7.252 2.518 7.758.122.157 2.6-.651 5.506-1.796 3.372-1.329 5.631-1.736 6.243-1.124 1.603 1.603-.014 2.873-5.264 4.132-3.945.947-5.003 1.625-5.003 3.209 0 2.185.062 2.181 9.295-.663 4.676-1.44 4.816-1.421 5.633.739.46 1.219.677 2.491.482 2.827-.196.335-3.068 1.371-6.383 2.301-6.194 1.738-6.618 2.107-5.126 4.462.725 1.144 2.316.993 9.485-.901 7.833-2.07 10.007-3.22 7.823-4.14-.436-.183-2.051-2.003-3.59-4.045l-2.798-3.711 10.59-5.267c9.564-4.756 12.45-6.81 9.571-6.81-.56 0-5.53 2.264-11.045 5.031-5.514 2.768-10.454 4.768-10.976 4.445-.523-.323-1.421-1.467-1.996-2.541-.879-1.643-.641-2.108 1.495-2.92 2.801-1.065 3.141-2.014 1.359-3.796-.908-.908.814-2.103 7.449-5.168 11.23-5.188 12.413-5.43 17.608-3.596 2.406.85 4.544 1.545 4.75 1.545.206 0 .374-1.575.374-3.5s.5-3.5 1.111-3.5c.737 0 .881 1.228.428 3.646-.479 2.554-.288 3.897.638 4.485 1.991 1.262-1.835 1.122-4.22-.154-1.541-.825-1.799-.729-1.33.494.321.835.985 1.269 1.478.964.492-.304.895-.028.895.613 0 .643.696.899 1.552.57.89-.341 1.291-.173.941.393-.336.544.203.996 1.198 1.004 1.534.013 1.581.163.309.985-1.892 1.223-3.291 1.28-2.565.105.604-.977-2.393-2.48-3.245-1.629-.288.288.028.524.702.524.674 0 .948.45.608 1-.34.55-.115 1 .5 1s.812.495.438 1.1c-.494.799-.119.799 1.376 0 3.194-1.71 3.64-1.302 1.047.956-2.221 1.935-2.232 1.994-.177 1 3.573-1.727 4.038-1.19.816.944-1.65 1.093-2.411 1.99-1.691 1.993.72.004 1.003.502.629 1.107-.494.799-.119.799 1.376 0 1.13-.605 2.647-1.084 3.37-1.065.724.02.226.64-1.107 1.378l-2.423 1.342 2.201.699c2.51.797 12.3-4.139 20.699-10.434 4.426-3.318 5.262-4.537 6.729-9.814 3.832-13.782 6.348-38.206 3.936-38.206-.43 0-3.405 2.652-6.612 5.892M7.75 141.689c-1.9.497-2.295 3.425-.83 6.161.703 1.314 1.895 1.625 5.074 1.322 4.497-.429 5.577-1.762 4.595-5.674-.516-2.055-1.201-2.477-3.858-2.382-1.777.064-4.018.322-4.981.573m1.955 1.032c-2.345.353-2.687.772-2.126 2.6.926 3.015.894 3 4.958 2.238 2.694-.505 3.48-1.073 3.047-2.202-.321-.836-.584-1.934-.584-2.439 0-.932-.334-.944-5.295-.197m228.956 5.223c-.959 4.798-.881 5.056 1.53 5.056 2.147 0 2.152-.031.25-1.545-1.794-1.428-1.544-1.496 3.309-.906 5.027.612 5.249.539 5.22-1.705-.025-1.916-.2-2.055-.957-.761-1.329 2.272-6.94 1.29-7.93-1.389-.665-1.795-.844-1.637-1.422 1.25M15 153c-1.207.78-1.049.972.809.985 3.344.022 1.81 1.676-2.263 2.44-4.083.766-5.038 1.901-3.631 4.317.93 1.597 1.027 1.563 1.055-.367.042-2.937 5.931-4.231 7.776-1.708 1.546 2.115 1.611.656.156-3.518-1.185-3.399-1.608-3.632-3.902-2.149m12.001 2.23c.002 1.229 4.838 12.54 7.597 17.77 3.639 6.899 13.244 20.491 13.968 19.767.237-.237-.637-3.094-1.941-6.349-1.305-3.255-2.971-8.393-3.703-11.418-1.151-4.757-2.316-6.482-8.626-12.77-4.013-3.998-7.296-7.148-7.295-7m208.955 3.386c-1.627 4.279-1.133 5.259 3.241 6.437 3.699.996 4.355.913 5.537-.704 2.372-3.243 1.157-5.657-3.528-7.008-4.166-1.203-4.323-1.165-5.25 1.275m1.044.302c0 .505-.242 1.549-.538 2.321-.366.952.661 1.77 3.199 2.549 2.056.631 3.817 1.049 3.914.93.097-.12.472-1.181.833-2.359.541-1.761.093-2.337-2.525-3.25-3.87-1.349-4.883-1.389-4.883-.191m-217.75 4.744c-.687.278-1.25.903-1.25 1.39 0 .487.675.626 1.5.31.825-.317 1.5-.096 1.5.491s-1.8 1.606-4 2.265c-4.28 1.282-4.498 1.564-3 3.882.84 1.3.971 1.28.985-.152.009-.957 1.379-2.128 3.255-2.782 2.75-.958 3.431-.869 4.5.593 1.775 2.428 1.593-.114-.266-3.709-.839-1.622-1.626-2.914-1.75-2.871-.123.043-.786.306-1.474.583m96.563 3.136c-3.952.258-4.737.651-5 2.504-.284 1.992-.97 2.225-7.314 2.487-6.67.275-7.33.532-14 5.444l-6.999 5.156 4 .891c8.532 1.899 45.5-2.269 45.5-5.13 0-1.842-2.166-9.466-2.919-10.274-.82-.879-7.725-1.441-13.268-1.078m15.605 3.732c.373 1.487.938 4.001 1.255 5.587.665 3.321 1.07 3.452 4.104 1.326 3.474-2.432 2.793-5.112-1.907-7.509l-4.13-2.107.678 2.703m99.675.632c-.606 1.739-.987 3.267-.848 3.395.355.324 7.92 3.443 8.351 3.443.435 0 3.404-5.672 3.404-6.501 0-.78-6.506-3.499-8.37-3.499-.789 0-1.93 1.423-2.537 3.162m1.514-.58c-.975 2.539-.75 3.032 1.94 4.257 3.479 1.585 4.215 1.475 5.441-.816.924-1.726.595-2.17-2.587-3.5-4.432-1.852-4.059-1.856-4.794.059M43 171.091c0 1.964 5.45 17.834 7.523 21.909 3.021 5.935 6.771 9.358 13.521 12.342C74.323 209.886 98 215.891 98 213.955c0-.447-2.461-1.324-5.469-1.949-6.462-1.341-16.438-6.12-19.127-9.162L71.5 200.69l2.553 1.641C77.216 204.364 87.624 208 90.279 208c1.634 0 1.756-.253.721-1.5-.685-.825-1.849-1.5-2.587-1.5-2.777 0-11.033-3.296-14.163-5.654-2.565-1.932-3.25-3.174-3.25-5.897 0-2.782.387-3.449 2-3.449 1.531 0 2 .667 2 2.845 0 1.565.804 3.573 1.787 4.462 1.863 1.686 8.39 4.693 10.187 4.693.572 0-.877-2.887-3.218-6.416-4.142-6.244-4.429-6.46-10.719-8.013-3.554-.878-6.929-2.107-7.5-2.731-.748-.818-.569-.97.642-.546 4.588 1.608 8.497 1.801 9.599.474.946-1.14-.216-1.725-6.564-3.301-4.243-1.054-11.877-4-16.964-6.549-5.087-2.548-9.25-4.27-9.25-3.827m-22.25 4.977c-2.062 1.089-3.75 2.319-3.75 2.733 0 .596 1.725 3.503 3.572 6.019.495.675 8.428-3.913 8.428-4.876 0-1.317-3.04-5.957-3.865-5.9-.349.025-2.322.935-4.385 2.024m1 1.504c-2.98 1.617-3.203 2.163-1.794 4.391.804 1.272 1.397 1.239 4.52-.25 3.135-1.495 3.457-1.969 2.524-3.713-1.262-2.358-1.637-2.388-5.25-.428m118.5 2.533c-5.24 3.054-6.631 4.895-3.7 4.895 2.332 0 6.651-2.49 9.374-5.405 3.322-3.556.931-3.341-5.674.51m85.453 1.064c-1.432 2.516-1.533 3.322-.5 3.978 2.111 1.338 3.138.969 1.797-.647-1.741-2.098.785-2.039 3.824.089 2.413 1.69 5.176 1.286 5.176-.758 0-.893-.301-.93-1.098-.133-1.642 1.642-7.105-1.66-6.529-3.948.697-2.774-.708-2.027-2.67 1.419m-108.203 1.99c-2.2.511-11.397 1.05-20.437 1.197-11.593.19-16.555.619-16.834 1.456-.915 2.745 32.039.668 42.271-2.663 3.868-1.26.437-1.253-5 .01m51.5.944c-1.925 1.111-2.6 1.716-1.5 1.345s2.787-.901 3.75-1.178c.963-.277 1.75-.901 1.75-1.387 0-1.123.13-1.163-4 1.22m-139.545 1.439c-1.906 1.523-1.899 1.546.295.942 3.423-.942 2.687 1.083-1.286 3.538-3.599 2.225-3.608 2.312-.623 5.978.224.275.127-.416-.216-1.535-.846-2.761 4.674-6.292 6.921-4.426 2.207 1.831 1.67-.187-.877-3.299-2.099-2.564-2.399-2.649-4.214-1.198M122 186.569c-5.225 1.293-14.675 2.755-21 3.249-10.916.852-11.112.905-3.856 1.04 15.483.288 35.676-2.817 36.613-5.63.527-1.58-.355-1.48-11.757 1.341m84.5 3.442c-3.3 2.146-7.687 4.665-9.75 5.598-2.062.932-3.75 2.287-3.75 3.011 0 .764-.634 1.074-1.511.737-1.022-.392-1.335-.119-.965.844.37.966-1 2.148-4.257 3.674-4.205 1.969-5.069 2.927-6.943 7.687-2.312 5.874-2.28 6.011.992 4.288 10.954-5.766 29.202-21.231 32.566-27.6 1.619-3.065.609-2.787-6.382 1.761m12.756.857c-1.579 2.135-1.831 3.157-.988 4 1.686 1.686 3.174 1.37 1.732-.368-1.887-2.274.899-1.926 4 .5 3.196 2.5 3.675 2.477 5.129-.25 1.075-2.019 1.032-2.113-.419-.916-2.261 1.865-7.988-1.382-7.142-4.049.805-2.535.128-2.218-2.312 1.083M84.75 189.662c.688.278 1.813.278 2.5 0 .688-.277.125-.504-1.25-.504s-1.937.227-1.25.504m44.25 1.395c-1.925.469-8 1.368-13.5 1.998-8.222.941-11.953.873-20.987-.385-6.043-.841-11.145-1.371-11.338-1.178-.55.55 4.731 9.186 6.527 10.673 2.827 2.342 25.839 1.653 38.048-1.138 5.96-1.363 10.25-2.843 10.25-3.536 0-.656-.494-2.61-1.098-4.342-1.16-3.327-1.961-3.539-7.902-2.092m59 .943c-.825.533-1.05.969-.5.969s1.675-.436 2.5-.969c.825-.533 1.05-.969.5-.969s-1.675.436-2.5.969m-152.052 3.563c-1.14 1.374-.944 1.484 1.627.91l2.925-.653-3.863 3.374c-3.486 3.044-3.704 3.506-2.227 4.731 1.4 1.162 1.551 1.138 1.049-.17-.702-1.831 5.039-6.376 6.03-4.773.346.56 1.137 1.018 1.757 1.018.621 0-.165-1.35-1.746-3-3.303-3.448-3.781-3.571-5.552-1.437M171 200c-11.668 6.016-11.355 6.443.612.834 4.888-2.291 9.451-4.166 10.138-4.167.688 0 1.25-.375 1.25-.834 0-1.591-2.551-.705-12 4.167m13-3.095c0 .83 4.102 2.326 4.711 1.718.163-.164-.829-.812-2.207-1.439-1.377-.628-2.504-.753-2.504-.279m28.145 2.44c-2.844 3.028-2.716 3.997.932 7.066 3.871 3.258 4.326 3.236 6.86-.323l2.074-2.912-3.861-3.057-3.86-3.057-2.145 2.283m.488 1.508c-1.519 1.679-1.457 1.964.913 4.191 1.962 1.843 2.92 2.152 4.189 1.351 2.682-1.691 2.537-3.065-.554-5.266-2.804-1.997-2.981-2.008-4.548-.276m-75.843.69c-1.438 1.438-24.153 4.457-33.533 4.457-8.747 0-10.313.227-9.372 1.362 2.564 3.089 21.524 2.582 38.307-1.025 6.288-1.351 7.808-2.034 7.808-3.507 0-1.71-1.989-2.507-3.21-1.287m-92.123 2.124c-1.268 1.268-.665 2.576.675 1.464 2.875-2.386 2.522.414-.437 3.467-2.878 2.969-3.232 5.402-.787 5.402.55 0 .701-.483.336-1.074-1.124-1.819 3.621-6.034 5.979-5.311 1.924.59 1.899.452-.357-1.991-2.41-2.608-4.134-3.232-5.409-1.957m158.322 4.844-2.359 2.512 3.381 3.488 3.38 3.488 2.812-2.694 2.812-2.694-3.203-3.305c-1.763-1.819-3.488-3.306-3.834-3.306-.346 0-1.691 1.13-2.989 2.511M64 207.358c0 1.598 21.261 12.698 29.888 15.604 7.337 2.472 19.146 5.057 19.03 4.166-.046-.345-2.887-2.931-6.316-5.746-5.97-4.902-6.715-5.213-17.667-7.375-6.289-1.241-14.301-3.325-17.804-4.632-6.612-2.466-7.131-2.612-7.131-2.017m111.531 1.872c-3.267 1.681-4.479 1.85-6.848.956-2.333-.88-4.71-.602-12.531 1.47-5.309 1.406-9.784 2.678-9.944 2.826-.799.736 4.87 11.518 6.055 11.518 1.767 0 10.74-2.661 17.54-5.202 4.873-1.821 5.503-2.433 7.763-7.543 1.353-3.06 2.342-5.676 2.197-5.815-.145-.139-2.049.666-4.232 1.79m27.61.1c-.844 1.017-.447 1.961 1.684 4.002 2.503 2.398 2.987 2.526 4.732 1.25 1.904-1.393 1.895-1.472-.481-4.001-2.709-2.884-4.301-3.219-5.935-1.251m-71.641 2.322c-3.85.761-12.714 1.488-19.698 1.615-7.002.129-12.317.616-11.847 1.086 1.513 1.516 21.295 1.945 32.049.695 11.668-1.356 12.141-1.506 11.345-3.58-.657-1.714-2.37-1.688-11.849.184m-78.041.415c-.363.586-.328 1.374.078 1.75.405.375.939.118 1.185-.573.247-.691.862-1.001 1.367-.689.506.312-.208 2.045-1.585 3.851-3.058 4.009-3.067 4.224-.254 5.723 2.024 1.078 2.115 1.035.907-.43-1.145-1.388-1.02-2.082.847-4.705 1.75-2.457 2.474-2.842 3.594-1.913.771.64 1.402.843 1.402.452 0-1.053-4.311-4.461-5.691-4.5-.655-.018-1.488.447-1.85 1.034m85.541 3.21c-2.475.517-11.586 1.004-20.247 1.082-8.661.077-15.636.452-15.5.832.136.38 3.042 2.929 6.459 5.666 5.546 4.442 6.901 5.049 12.637 5.664 5.439.582 26.32-.856 27.348-1.884.45-.451-4.65-11.508-5.512-11.95-.377-.193-2.71.073-5.185.59m54.056.646-2.445 1.879 2.746 3.599c3.202 4.198 3.523 4.268 7.005 1.529l2.632-2.071-2.615-3.429c-2.993-3.924-3.928-4.116-7.323-1.507m1.509.406c-1.449 1.059-1.6 1.737-.746 3.332 1.875 3.504 3.485 4.321 5.544 2.815 1.798-1.314 1.787-1.456-.321-4.417-2.534-3.559-2.169-3.418-4.477-1.73m-131.106 2.738c-.363.586-.365 1.361-.005 1.721.36.36 1.056.005 1.546-.788 1.969-3.187 1.932 0-.039 3.341-2 3.39-1.973 5.659.067 5.659.5 0 .664-.639.365-1.419-.3-.781.224-2.592 1.163-4.026 1.263-1.928 2.259-2.45 3.826-2.005 1.537.437 1.296.035-.882-1.467-3.351-2.312-5.063-2.6-6.041-1.016m120.291 2.505c-2.873 1.559-3.577 3.799-1.58 5.033.782.483.962.182.544-.909-1.238-3.225 1.042-2.564 2.871.833 1.977 3.67 2.984 4.11 5.415 2.361 1.26-.906 1.215-.987-.277-.505-2.382.768-6.179-5.13-4.559-7.082 1.353-1.631 1.019-1.594-2.414.269m-110.7 6.33c-2.19 4.292-1.686 5.398 2.994 6.573 2.183.548 2.769.14 4.244-2.954 2.224-4.663 2.182-4.986-.835-6.36-3.77-1.718-4.228-1.522-6.403 2.741m1.34.31c-1.524 2.947-1.512 3.225.184 4.466.994.727 2.089 1.322 2.432 1.322.985 0 4.007-6.881 3.21-7.308-3.239-1.736-4.283-1.464-5.826 1.52m98.559-1.388c-2.449 1.156-3.434 2.219-3.176 3.426.205.963.839 1.75 1.407 1.75.569 0 .78-.661.471-1.468-.31-.807-.196-1.695.253-1.973.449-.277 1.623 1.283 2.608 3.468 1.926 4.271 2.2 4.452 4.488 2.973 1.287-.831 1.255-.972-.224-.985-.949-.008-2.443-1.405-3.321-3.103-1.491-2.883-1.476-3.179.224-4.468 2.357-1.787 1.654-1.689-2.73.38m-87.396 2.898c-.805 2.097.324 3.094 1.447 1.278 1.697-2.745 2.02-.291.455 3.455-1.772 4.24-1.834 4.041 1.545 5.024 2.265.659 2.332.6.718-.635-1.535-1.175-1.621-1.824-.623-4.687.914-2.623 1.584-3.213 3.176-2.796 3.061.8.672-.94-2.944-2.146-2.614-.871-3.279-.782-3.774.507m75.947.991c-3.311.796-3.712 1.846-2.392 6.252 1.191 3.977 1.43 4.177 4.295 3.604 4.385-.877 4.901-1.823 3.516-6.446-1.229-4.1-1.595-4.33-5.419-3.41m-.22 1.348c-2.06.791-2.126 1.076-.912 3.964 1.508 3.586 1.414 3.527 4.401 2.746 2.076-.543 2.166-.835 1.06-3.432-1.697-3.986-2.048-4.238-4.549-3.278m-63.631.697c-.317.513-.864 2.737-1.217 4.941-.625 3.909-.559 4.026 2.651 4.668 4.055.811 4.924.001 5.628-5.246.416-3.103.211-4.124-.829-4.135-.76-.007-2.344-.271-3.519-.587-1.176-.315-2.397-.154-2.714.359m.952 2.135c-.243.884-.716 2.565-1.05 3.735-.488 1.708-.104 2.224 1.944 2.616 2.891.552 3.019.427 3.939-3.868.596-2.78.392-3.176-1.86-3.607-1.759-.336-2.665.007-2.973 1.124m50.399-.977c-2.201.632-2.462 1.188-2.184 4.651.4 4.978 1.241 5.799 5.074 4.957 3.864-.849 3.975-1.089 2.886-6.274-.91-4.328-1.374-4.596-5.776-3.334m-39.531.948c-.258.258-.455 1.407-.437 2.553.029 1.944.12 1.966 1.36.333 2.039-2.686 2.406-2.141 1.855 2.75-.478 4.238-.368 4.493 1.873 4.384 1.842-.09 1.963-.223.537-.591-1.331-.343-1.682-1.075-1.263-2.634.318-1.188.585-2.914.592-3.836.008-.922.801-1.85 1.764-2.063.963-.212.049-.607-2.031-.876-2.079-.269-3.991-.278-4.25-.02m24.929 1.541c-.296.772-.395 2.91-.218 4.75.304 3.182.514 3.345 4.32 3.345 2.587 0 3.965-.442 3.9-1.25-.055-.687-.167-2.825-.25-4.75-.142-3.311-.341-3.5-3.681-3.5-2.111 0-3.749.565-4.071 1.405m13.617 1.345c.022 3.904 1.175 5.274 3.851 4.575 1.751-.458 2.161-1.102 1.728-2.713-.312-1.161-.573-2.674-.58-3.362-.008-.687-1.139-1.25-2.514-1.25-2.064 0-2.497.479-2.485 2.75m-25.899.5c.087 1.693.229 1.817.573.5.887-3.392 2.311-1.696 2.311 2.75 0 3.833.296 4.5 2 4.5 1.1 0 2-.45 2-1s-.562-.887-1.25-.75c-.778.156-1.366-1.138-1.556-3.423-.263-3.158.018-3.735 2-4.114 1.303-.249.456-.5-1.944-.577-3.812-.122-4.238.096-4.134 2.114m14.122-1.432c-.825.532-1.041 1.917-.625 3.998.507 2.533 1.135 3.184 3.072 3.184 2.202 0 2.406-.359 2.125-3.742-.315-3.796-2.027-5.084-4.572-3.44" fill="#1976D2" fill-rule="evenodd"/><path fill-opacity=".559" d="M112 6.046C38.377 15.173-12.048 82.684 2.985 152c10.414 48.016 47.961 84.372 98.281 95.163 14.554 3.122 38.914 3.122 53.468 0 17.828-3.823 31.605-9.645 47.151-19.925 9.641-6.375 23.727-19.827 30.511-29.138 11.098-15.232 19.464-35.556 21.651-52.6.635-4.95 1.559-9.781 2.054-10.736 1.148-2.218 1.184-16.058.04-15.351-.472.292-1.142-2.513-1.488-6.233-1.856-19.976-10.788-41.148-25.177-59.68-18.066-23.269-46.3-40.191-76.749-46.002C142.493 5.546 121.948 4.813 112 6.046M116.5 11c.34.55 1.266 1 2.059 1 .98 0 1.441 1.119 1.441 3.5 0 2.503-.444 3.5-1.559 3.5-.857 0-1.323.382-1.035.848.628 1.016 8.203-.061 7.844-1.115-.138-.403-.25-1.408-.25-2.233 0-2.077-1.752-1.888-2.311.25-.251.962-.509-.163-.573-2.5-.111-4.048-.261-4.25-3.175-4.25-1.785 0-2.802.417-2.441 1m12.5 4v5h9V10h-9v5m14-4.214c0 .55.603 1.231 1.34 1.514 2.15.825.875 6.7-1.453 6.7-1.038 0-1.887.45-1.887 1s.619 1 1.375 1 2.781.281 4.5.625c2.865.573 3.125.407 3.125-2 0-2.962-1.575-3.54-2.385-.875-.293.962-.298-.387-.012-3 .305-2.788.115-4.75-.46-4.75-.539 0-1.691-.273-2.561-.607-.87-.334-1.582-.157-1.582.393m-11.442.989c-.93.931-.624 6.225.36 6.225.505 0 1.63.273 2.5.607 1.256.482 1.582-.111 1.582-2.883 0-2.615-.487-3.618-1.942-3.999-1.068-.279-2.193-.256-2.5.05m-32.808.914c-.963.252-1.75.923-1.75 1.491 0 .569.667.778 1.481.466 2.271-.872 3.693 5.445 1.592 7.072-1.352 1.047-1.199 1.223 1.095 1.25 4.159.05 5.832-.976 5.832-3.575 0-3.03-1.731-3.14-2.252-.143-.293 1.685-.717 1.057-1.688-2.5-.714-2.613-1.582-4.698-1.929-4.634-.347.064-1.418.322-2.381.573m55.425 4.454c-.965 3.746-.889 4.532.542 5.607.916.688 2.875 1.25 4.352 1.25 2.325 0 2.833-.572 3.765-4.244 1.242-4.895.787-5.619-4.022-6.399-3.449-.56-3.536-.489-4.637 3.786m2.432-.561c-1.199 3.123-.65 5.418 1.295 5.418 2.553 0 4.665-5.568 2.437-6.423-2.342-.899-3.077-.701-3.732 1.005m-71.357.08c-2.019.815-1.431 2.53.641 1.873 1.468-.466 2.139.111 3 2.582C90.282 25.108 90.293 25 88.5 25c-.825 0-1.5.45-1.5 1 0 1.282.957 1.26 4.905-.117 2.398-.836 3.127-1.633 2.899-3.171-.167-1.131-.914-2.256-1.659-2.502-.983-.324-1.192.203-.762 1.922.325 1.302-.319.455-1.433-1.882-1.94-4.071-2.941-4.701-5.7-3.588m82.309 1.637c-.783 1.211-1.726 3.432-2.096 4.936-.574 2.334-.281 2.884 1.997 3.75 4.346 1.652 5.56 1.211 7.153-2.602 1.872-4.479 1.393-5.837-2.542-7.209-2.725-.949-3.257-.817-4.512 1.125M75.5 20.672c-1.65.876-3.144 1.714-3.32 1.863-.824.699 4.032 8.465 5.293 8.465C79.563 31 84 28.824 84 27.8c0-1.474-3.991-8.803-4.77-8.76-.402.022-2.08.756-3.73 1.632m92.677 1.251c-.995 2.855-.154 4.077 2.807 4.077 1.05 0 3.044-5.639 2.268-6.415-1.539-1.539-4.142-.34-5.075 2.338m-91.536.35c-1.541 1.127-1.618 1.683-.554 4.018 1.252 2.748 2.481 3.271 4.568 1.943.843-.536.699-1.616-.535-4.002-1.492-2.886-1.898-3.115-3.479-1.959m101.825 2.781c-2.818 4.463-2.646 5.284 1.558 7.458 2.849 1.474 2.938 1.437 5.436-2.239 3.307-4.866 3.217-5.58-.958-7.571l-3.498-1.668-2.538 4.02m1.492 1.024c-.612 1.143-.866 2.718-.566 3.5.903 2.355 3.461 1.606 5.058-1.481 1.344-2.599 1.338-2.964-.057-3.5-2.515-.965-3.259-.717-4.435 1.481m-71.727.957c-42.359 9.139-72.49 36.862-83.46 76.79-3.046 11.087-3.046 36.263 0 47.35 15.691 57.111 73.514 89.816 132.271 74.814 36.923-9.427 65.991-38.082 75.586-74.512 2.237-8.492 2.627-12.06 2.627-23.977 0-17.286-2.688-28.917-10.171-44-13.568-27.348-37.896-46.589-69.633-55.072-13.832-3.697-33.808-4.287-47.22-1.393m-45.481.357c-2.265 1.719-2.246 2.9.035 2.176 2.487-.789 6.185 5.122 3.782 6.045-.856.328-1.321.977-1.033 1.442.887 1.434 7.642-3.153 7.022-4.769-.306-.797-.556-1.638-.556-1.868 0-.23-.73-.418-1.622-.418-1.329 0-1.398.271-.378 1.5.754.909.835 1.5.204 1.5-.572 0-2.014-1.575-3.204-3.5-1.19-1.925-2.239-3.486-2.332-3.468-.092.017-.956.629-1.918 1.36m126.559 3.718-2.738 4.136 2.965 2.372c1.63 1.305 3.295 2.374 3.7 2.377 1.319.009 5.972-7.85 5.295-8.944-.362-.586-1.969-1.743-3.571-2.572-2.89-1.494-2.935-1.473-5.651 2.631m1.343 1.489c-1.797 2.468-1.797 2.575 0 3.901 1.634 1.206 2.099 1.053 4.008-1.318 1.548-1.922 1.867-3.036 1.128-3.932-1.548-1.874-3.081-1.471-5.136 1.349M52.349 34.376l-2.762 2.376 2.956 3.552c1.626 1.953 3.407 3.582 3.957 3.619.55.037 2.314-.984 3.919-2.269l2.92-2.336-2.92-3.659c-3.432-4.302-4.384-4.453-8.07-1.283m1.691 1.076c-.959 1.155-.83 1.968.627 3.969 2.143 2.942 2.672 3.081 4.293 1.127.959-1.155.83-1.968-.627-3.969-2.143-2.942-2.672-3.081-4.293-1.127M203 34.719c0 .64.487 1.464 1.082 1.832.683.422.067 1.727-1.67 3.54-2.262 2.362-3.016 2.654-4.244 1.641-1.211-.999-1.403-.96-1.018.207.262.792 1.69 2.346 3.174 3.454 2.526 1.886 2.805 1.907 4.377.334 2.02-2.019.991-3.546-1.177-1.747-2.552 2.118-1.7-.187 1.18-3.193l2.705-2.823-2.205-2.204c-1.212-1.213-2.204-1.681-2.204-1.041M41.573 43.521c-1.06.802-1.633 1.752-1.274 2.111.359.359 1.265.144 2.014-.477 1.82-1.51 6.036 2.773 5.108 5.19-.931 2.427.89 2.018 3.531-.794C53.462 46.88 53.14 44 50.331 44c-1.346 0-1.464.267-.531 1.2.66.66 1.2 1.648 1.2 2.196 0 .548-1.484-.442-3.298-2.2-3.775-3.659-3.578-3.605-6.129-1.675m171.505 1.073c1.13 1.361.965 1.869-1.127 3.47-1.348 1.031-3.238 1.633-4.201 1.338-2.444-.75-2.181.844.564 3.424 2.736 2.57 3.994 2.713 5.706.65 1.643-1.979.483-3.139-1.496-1.496-.838.696-1.528.872-1.533.392-.005-.479 1.439-2.062 3.209-3.517 2.776-2.282 3.036-2.866 1.887-4.25-.733-.883-2.007-1.605-2.832-1.605-1.259 0-1.288.256-.177 1.594M75 47.731c0 1.649 1.035 2.212 5.771 3.144 12.449 2.449 23.212 13.531 25.617 26.375.546 2.916 1.168 3.75 2.797 3.75 1.918 0 2.045-.41 1.516-4.881-1.742-14.703-15.328-27.985-30.46-29.777-4.788-.567-5.241-.447-5.241 1.389M32.5 53c-.995 1.1-1.317 2-.714 2s1.379-.458 1.725-1.018c.387-.626 1.773-.204 3.597 1.095 2.271 1.617 2.817 2.618 2.328 4.268-.53 1.788-.069 1.593 2.713-1.149 3.246-3.2 3.29-3.349 1.41-4.75C41.291 51.756 40 51.595 40 53c0 .55.45 1 1 1s1 .503 1 1.119c0 .615-1.545-.06-3.433-1.5-4.111-3.136-3.817-3.106-6.067-.619m185.249 2.055-3.719 3.066 2.173 2.94c2.68 3.625 3.406 3.624 7.796-.016l3.5-2.9-2.061-2.76c-2.838-3.801-3.446-3.827-7.689-.33M75 57.031c0 1.118.563 2.191 1.25 2.386.688.195 3.17.876 5.517 1.514C89.293 62.976 96.911 71.9 96.978 78.75c.017 1.753.598 2.25 2.633 2.25 2.473 0 2.575-.199 1.925-3.75-1.737-9.488-8.644-17.736-17.331-20.696-6.418-2.187-9.205-2.042-9.205.477m143.517-.05c-1.46 1.614-1.561 2.261-.543 3.488 1.103 1.328 1.598 1.26 4.18-.579 2.336-1.663 2.693-2.369 1.765-3.488-1.606-1.935-3.29-1.755-5.402.579M26.068 60.904C24.931 62.502 24 64.07 24 64.39c0 .32 1.854 1.808 4.119 3.308l4.12 2.726 2.38-2.768C35.929 66.134 37 64.523 37 64.077 37 63.33 29.623 58 28.59 58c-.25 0-1.384 1.307-2.522 2.904m1.013 1.498c-.93 1.121-.54 1.847 1.937 3.611 2.993 2.131 3.147 2.143 4.452.359 1.195-1.635 1.044-2.052-1.309-3.604-3.222-2.125-3.597-2.152-5.08-.366m202.402 1.546c.468 1.474-.109 2.325-2.375 3.496-1.882.973-3.223 1.179-3.61.552-1.127-1.823-2.634-1.115-1.606.754 2.631 4.787 3.681 5.549 5.965 4.326 1.21-.647 1.921-1.626 1.582-2.175-.398-.644-1.118-.582-2.028.173-.776.644-1.411.737-1.411.206s1.575-1.813 3.5-2.85c3.968-2.137 3.846-1.915 2.465-4.496-1.349-2.519-3.282-2.509-2.482.014M75 67.5c0 1.979.505 2.5 2.423 2.5 3.325 0 8.205 4.343 9.588 8.533.89 2.697 1.686 3.467 3.586 3.467 2.156 0 2.364-.321 1.782-2.75-1.577-6.577-4.601-10.191-10.633-12.712C76.498 64.345 75 64.559 75 67.5m-55.443 3.723c-2.498 3.566-1.882 5.327 2.566 7.332l4.123 1.86 1.877-2.318c2.753-3.401 2.335-4.823-2.083-7.077-4.869-2.484-4.596-2.492-6.483.203m1.592 1.028c-1.772 1.772-1.408 2.564 1.984 4.318 2.585 1.337 3.281 1.385 3.984.275 1.342-2.116 1.075-2.693-1.968-4.267-2.147-1.11-3.135-1.191-4-.326m40.922 2.487c-5.235 2.69-7.599 6.556-7.386 12.077.154 3.963.722 5.17 3.733 7.93 7.033 6.445 17.952 3.426 20.693-5.721 2.836-9.464-8.282-18.785-17.04-14.286m169.679.33c-4.213 2.224-4.597 3.665-1.873 7.029l1.877 2.318 4.123-1.86c4.448-2.005 5.064-3.766 2.566-7.332-1.864-2.662-1.94-2.664-6.693-.155m1.495 1.471c-3.363 1.414-3.76 2.101-2.428 4.199.62.976 1.464.982 3.985.031 3.214-1.213 3.797-2.279 2.428-4.432-.555-.871-1.552-.821-3.985.202M13.421 83.534c-.846 2.025-1.399 3.811-1.23 3.969.61.567 8.072 3.497 8.905 3.497.771 0 3.904-5.157 3.904-6.425 0-.644-4.689-3.072-7.77-4.022-1.938-.598-2.496-.162-3.809 2.981m2.184.054c-1.016 2.646-.718 3.177 2.389 4.26 2.569.895 3.142.766 4.04-.912.886-1.655.634-2.112-1.638-2.975-1.476-.562-3.022-1.23-3.435-1.485-.413-.256-1.024.245-1.356 1.112m168.288-.105c-1.433.787-3.409 2.656-4.39 4.153-1.639 2.501-1.775 5.888-1.685 41.793.054 21.489.118 39.652.14 40.361.032.971 2.087 1.219 8.292 1l8.25-.29.265-29.75.265-29.75h19.091l-.311-3.75-.31-3.75-9.25-.288-9.25-.287v-5.263c0-2.894.54-5.802 1.2-6.462.771-.771 4.725-1.2 11.06-1.2h9.861l-.311-3.75-.31-3.75-15-.224c-11.465-.171-15.614.114-17.607 1.207m57.871 1.087c-.345.344-.405 1.203-.134 1.909.297.772-.782 1.727-2.71 2.399-2.714.946-3.406.85-4.53-.631-1.22-1.607-1.329-1.612-1.358-.062-.071 3.763 1.924 6.961 4.141 6.634 1.194-.175 2.371-.929 2.617-1.674.329-.997-.146-1.167-1.797-.643-1.442.458-2.016.344-1.607-.318.35-.567 2.012-1.332 3.693-1.701 1.681-.37 3.288-1.277 3.572-2.017.603-1.572-.968-4.816-1.887-3.896M16 93.883c0 .56.788 1.524 1.75 2.143 1.528.983 1.537 1.06.071.608-.923-.284-3.223-.806-5.111-1.161-3.001-.563-3.507-.356-4.031 1.648-.76 2.904-.024 3.689 1.581 1.687 1.661-2.072 7.963-.552 7.094 1.711-.312.814-.091 1.481.492 1.481.888 0 3.555-7.016 2.877-7.57-1.15-.938-4.723-1.352-4.723-.547m225.25 3.433c-3.695.842-4.25 1.316-4.25 3.635 0 4.753 1.841 5.984 7 4.678 4.196-1.061 4.479-1.34 4.187-4.133-.462-4.424-1.946-5.318-6.937-4.18m-.5 2.373c-.963.252-1.75 1.325-1.75 2.384 0 1.991 1.683 2.387 5.634 1.327 1.504-.404 1.986-1.137 1.633-2.486-.486-1.858-1.897-2.171-5.517-1.225M13 105.857c0 .548.787 1.226 1.75 1.508.963.281-.5.426-3.25.323-4.491-.169-5.033.041-5.32 2.062-.175 1.237.162 2.25.75 2.25.589 0 1.07-.585 1.07-1.299 0-.896 1.086-1.173 3.5-.891 2.754.322 3.5.855 3.5 2.499 0 3.42 1.894.577 2.214-3.323.243-2.957-.055-3.533-1.964-3.805-1.238-.176-2.25.128-2.25.676m41.958 10.36c-.024 6.206-.006 19.045.04 28.533.081 16.725.021 17.25-1.957 17.25-1.752 0-2.041.637-2.041 4.5v4.5h30v-4.5c0-3.312-.392-4.5-1.484-4.5-1.272 0-1.523-4.057-1.75-28.25L77.5 105.5l-11.25-.283-11.25-.283-.042 11.283m37.254 21.994.288 33.293-9.393 7.332c-8.62 6.73-9.69 7.287-13 6.772l-3.607-.56 4 1.67c3.267 1.365 7.667 1.681 24 1.727 17.959.049 20.918-.187 29-2.318 13.161-3.47 20.5-7.472 20.5-11.178 0-2.357-5.954-7.43-10.664-9.086-2.151-.757-7.907-1.352-13.104-1.356l-9.269-.007.269-22 .268-22 16.425-.276c12.471-.209 16.62.032 17.235 1 .445.702.816 12.155.825 25.453l.015 24.176 8.602.324c6.991.262 8.756.032 9.431-1.234.457-.856.614-13.681.35-28.5-.525-29.386-.485-29.189-6.766-33.881-2.63-1.965-4.247-2.076-34.227-2.353l-31.467-.29.289 33.292m147.906-28.305c-.998.632-1.187 1.912-.682 4.607l.701 3.732 4.518-.51c5.617-.633 6.537-1.523 5.732-5.547-.593-2.969-.92-3.187-4.762-3.173-2.269.009-4.747.409-5.507.891m1.549 1.761c-.367.366-.667 1.55-.667 2.631 0 1.699.489 1.884 3.624 1.376 4.342-.705 4.605-.915 3.793-3.031-.625-1.628-5.407-2.32-6.75-.976M11 117.927c0 .509.787 1.132 1.75 1.384.963.251-.387.509-3 .573-4.495.11-4.748.263-4.718 2.866.029 2.5.152 2.591 1.36 1 1.682-2.216 7.608-2.411 7.608-.25 0 .825.45 1.5 1 1.5s1-1.8 1-4c0-3.6-.25-4-2.5-4-1.375 0-2.5.417-2.5.927M.343 127.5c.003 4.4.179 6.076.39 3.724.212-2.352.209-5.952-.006-8S.339 123.1.343 127.5m240.407-5.928c-.412.419-.75 2.275-.75 4.126 0 3.622 1.779 5.035 4.75 3.771 1.509-.642 1.406-.849-.75-1.507-1.994-.608-1.538-.783 2.25-.862 4.679-.099 4.75-.149 4.718-3.35-.027-2.756-.217-3.01-1.25-1.669-.67.87-2.651 1.866-4.403 2.213-2.698.534-3.234.315-3.5-1.427-.173-1.131-.653-1.714-1.065-1.295M5 132.889c0 2.196.338 4.202.751 4.457.413.256 2.912.221 5.552-.077l4.802-.541-.303-3.614c-.302-3.611-.307-3.614-5.552-3.916L5 128.895v3.994M7 133c0 1.619.667 2 3.5 2s3.5-.381 3.5-2-.667-2-3.5-2-3.5.381-3.5 2m233 4.5c0 4.133.204 4.5 2.5 4.5 1.375 0 2.5-.45 2.5-1s-.675-1-1.5-1-1.5-.341-1.5-.757c0-.417 2.025-.596 4.5-.4 4.272.34 4.5.226 4.5-2.242 0-1.431-.45-2.601-1-2.601s-1 .675-1 1.5c0 1.61-1.182 1.826-4.75.87-1.238-.332-2.25-1.226-2.25-1.987 0-.76-.45-1.383-1-1.383s-1 2.025-1 4.5m-229.5 3.392c-3.669.558-4.027.887-4.323 3.985-.435 4.555.722 5.411 6.202 4.589 4.232-.635 4.621-.929 4.621-3.498 0-3.194-.906-6.036-1.857-5.826-.354.078-2.443.415-4.643.75M8 145.617c0 2.225.336 2.526 2.25 2.013 1.238-.331 2.813-.609 3.5-.616.688-.008 1.25-.914 1.25-2.014 0-1.619-.667-2-3.5-2-3.108 0-3.5.293-3.5 2.617m230.607.965c-1.24 3.23-.627 6.179 1.392 6.707 2.637.69 3.524-.874 1.272-2.241-1.43-.868-1.193-.959 1.229-.469 1.65.334 3.733.803 4.628 1.043 1.119.299 1.78-.363 2.116-2.117.268-1.404.098-2.794-.378-3.088-.476-.294-.866.167-.866 1.024 0 1.622-1.952 1.947-5.681.947-1.342-.36-1.974-1.124-1.643-1.987.296-.77.088-1.401-.462-1.401s-1.273.712-1.607 1.582m-224.363 6.082c-.691.279-1.014.899-.718 1.378.296.479 1.272.589 2.17.244 1.01-.387 1.383-.223.979.431-.359.581-2.233 1.353-4.164 1.715C9.963 156.91 9 157.61 9 158.986c0 1.043.45 2.174 1 2.514.55.34 1-.071 1-.912 0-2.345 6.15-3.651 7.822-1.661 1.131 1.346 1.239 1.086.75-1.802-.315-1.856-.572-3.769-.572-4.25 0-.932-2.673-1.05-4.756-.211m221.158 6.915c-.835 2.001-1.312 3.844-1.059 4.097.253.253 2.558 1.092 5.122 1.863l4.661 1.403 1.437-3.439c1.844-4.412 1.845-4.402-.813-5.381-6.857-2.526-7.741-2.389-9.348 1.457m2.154-.802c-1.352 1.353-.36 4.042 1.694 4.593 3.604.965 4.486.747 5.006-1.241.374-1.432-.29-2.111-2.827-2.89-1.825-.559-3.567-.767-3.873-.462M18.25 163.662c-2.061.832-1.409 2.613.75 2.048 3.802-.994 1.986.978-2 2.172-2.2.659-4 1.593-4 2.076 0 1.775 1.242 4.042 2.214 4.042.55 0 .732-.699.404-1.553-.416-1.084.372-1.96 2.606-2.899 2.812-1.183 3.356-1.146 4.458.303 1.161 1.526 1.257 1.522 1.286-.054.047-2.503-2.119-6.809-3.379-6.718-.599.043-1.651.306-2.339.583m94.603 3.008c-.906.24-1.877 1.313-2.157 2.384-.435 1.665-1.407 1.946-6.725 1.946-5.753 0-6.674.328-12.344 4.403-3.37 2.421-7.614 5.956-9.432 7.854l-3.305 3.451 4.961.588c17.627 2.088 53.108-5.535 55.565-11.937 2.06-5.37-16.366-11.398-26.563-8.689m119.388 1.54c-.594.716-1.384 2.512-1.756 3.992-.603 2.406-.281 2.857 3.042 4.245 5.028 2.101 5.96 1.974 7.312-.994 1.757-3.856 1.426-5.162-1.589-6.253a151.301 151.301 0 0 1-4.34-1.643c-.874-.357-2.075-.063-2.669.653m.342 3.433c-.346.904-.507 1.713-.357 1.798 3.574 2.017 6.177 2.529 6.918 1.36 1.239-1.953 1.046-2.629-1.078-3.766-2.791-1.494-4.76-1.275-5.483.608M20.75 176.068c-4.305 2.273-4.237 2.089-2.224 5.982 1.808 3.496 2.349 3.564 7.493.94l3.939-2.009-1.664-3.491c-1.913-4.012-2.447-4.113-7.544-1.422m126.69 1.241c-1.181 4.008-7.638 7.689-18.94 10.796-6.12 1.682-11.878 2.327-24.5 2.741-11.939.392-15.256.745-12 1.274 7.859 1.278 23.327.935 33.074-.734 16.775-2.871 24.926-7.214 24.926-13.279 0-4.17-1.434-4.618-2.56-.798m-125.704.27c-2.325 1.262-2.597 1.812-1.712 3.466.984 1.838 1.247 1.866 4.014.435 3.251-1.681 3.223-1.635 2.355-3.898-.735-1.916-1.129-1.917-4.657-.003m142.514 3.767c-9.162 4.089-10.791 5.692-7.601 7.478 1.352.756.997 1.138-1.977 2.119-3.541 1.169-3.59 1.253-2.058 3.59l1.567 2.393 10.818-5.426c8.735-4.38 11.03-5.17 11.918-4.1.874 1.053-1.066 2.333-9.408 6.213-5.779 2.688-10.498 5.337-10.486 5.887.012.55.799 1.968 1.749 3.152l1.728 2.152 10.5-4.968 10.5-4.967 5.3 2.182c2.915 1.2 5.552 1.931 5.858 1.624.307-.307-.968-1.196-2.834-1.975-2.502-1.045-3.87-2.572-5.209-5.809a988.252 988.252 0 0 0-3.2-7.641c-1.065-2.504-1.099-3.267-.149-3.326 1.42-.088-5.253-2.789-6.766-2.739-.55.018-5.162 1.891-10.25 4.161m61.317-.191c-1.79 3.031-1.792 3.207-.068 4.468.988.722 2.206 1.059 2.708.749.502-.31.098-1.181-.897-1.936-2.833-2.148-.192-1.662 3.63.668 3.285 2.003 3.498 2.017 4.75.306.72-.986 1.31-2.156 1.31-2.601 0-1.284-1.787-.938-2.281.441-.654 1.824-6.305-1.71-5.925-3.705.494-2.597-1.257-1.723-3.227 1.61m-60.067 4.396c-7.29 3.616-6.656 3.676 2.25.213 2.887-1.123 5.25-2.429 5.25-2.903 0-1.11.569-1.314-7.5 2.69m-136.492-.06c-1.664 2.004-.529 3.186 1.468 1.529.838-.696 1.524-.862 1.524-.37s-1.575 1.743-3.5 2.78c-3.684 1.984-4.284 3.386-2.3 5.37 1.748 1.748 2.683 1.469 2.132-.637-.641-2.451 4.49-6.069 5.739-4.047.451.729 1.152.994 1.558.589.796-.796-2.582-5.856-4.29-6.425-.571-.191-1.62.354-2.331 1.211M218.9 191.14c-2.141 3.007-2.159 3.197-.421 4.468.999.731 2.268 1.049 2.82.707.586-.362.237-1.181-.839-1.968-2.922-2.137-.547-1.564 3.254.785 3.17 1.959 3.581 2.002 5.059.524.884-.885 1.273-1.944.863-2.353-.41-.41-1.117-.143-1.572.593-.658 1.065-1.462.87-3.925-.951-2.383-1.762-2.843-2.597-1.996-3.618.748-.9.763-1.327.048-1.327-.58 0-2.061 1.413-3.291 3.14M71 192.738c0 8.565 16.159 14.131 37.494 12.914 17.005-.969 43.959-7.308 42.893-10.086-.368-.96-2.929-.45-10.309 2.051-12.909 4.375-24.896 6.383-38.104 6.383-16.816 0-28.245-4.26-28.523-10.631-.176-4.044-3.451-4.643-3.451-.631m-34.51 2.325-1.99 2.251 2.5-.609c2.377-.578 2.34-.464-.75 2.329-3.656 3.305-3.907 4.176-1.726 5.986 1.794 1.489 3.352.456 1.741-1.155-1.612-1.612 3.732-6.111 5.509-4.637 2.491 2.066 2.142.096-.555-3.134l-2.739-3.282-1.99 2.251m133.697 6.676-9.313 4.587 5.166 2.375 5.167 2.375 4.647-2.355c2.555-1.295 7.121-3.631 10.146-5.191l5.5-2.835-4-1.774c-5.67-2.513-6.892-2.314-17.313 2.818m41.302-1.727-2.886 3.011 3.449 2.948c4.243 3.628 4.991 3.676 7.959.518l2.359-2.512-3.381-3.488c-1.86-1.919-3.659-3.489-3.998-3.489-.339 0-1.915 1.355-3.502 3.012m1.704.195c-1.774 1.774-1.416 3.085 1.406 5.141 2.467 1.797 2.575 1.797 3.887.002.743-1.016 1.275-1.848 1.182-1.848-.092-.001-1.319-1.011-2.725-2.245-1.98-1.737-2.826-1.974-3.75-1.05m-62.693 1.568c-28.714 9.726-56.56 10.504-74 2.07-2.991-1.447-3.495-1.525-2-.31 3.7 3.006 11.416 6.469 17.731 7.957 7.21 1.7 24.928 1.941 35.269.479 7.882-1.114 27.639-5.808 28.681-6.814.375-.361.15-1.575-.5-2.697-1.101-1.902-1.45-1.949-5.181-.685M44.672 203.81c-1.988 2.196-1.049 3.694 1.236 1.975.876-.659.118.39-1.682 2.331-3.272 3.526-3.273 3.531-1.244 5.367 2.232 2.02 3.979 1.38 2.173-.796-.874-1.054-.574-1.884 1.328-3.671 2.039-1.916 2.719-2.093 3.988-1.04 2.706 2.246 1.627-.508-1.297-3.31-2.736-2.62-2.881-2.648-4.502-.856m157.75 4.503-2.689 2.313 3.237 3.687c1.781 2.028 3.528 3.685 3.884 3.682.355-.003 1.979-1.072 3.609-2.376l2.964-2.371-2.765-3.624c-3.231-4.237-4.587-4.452-8.24-1.311m1.554 1.216c-1.053 1.269-.874 1.95 1.05 3.999 2.181 2.321 2.43 2.369 4.162.801 1.785-1.615 1.775-1.74-.347-3.998-2.577-2.743-3.173-2.841-4.865-.802m-150.409 2.397c-1.023 1.131-1.302 2.12-.701 2.491.548.339 1.278.158 1.624-.401.345-.559 1.098-1.016 1.673-1.016.574 0-.382 1.624-2.125 3.61l-3.17 3.61 2.131 1.492c1.172.82 2.426 1.197 2.787.836.361-.361.006-1.059-.789-1.55-2.177-1.346 2.643-6.247 5.311-5.4 2.553.81 1.484-.898-2.207-3.526-2.771-1.974-2.877-1.977-4.534-.146m140.183 3.189c-3.393 2.531-3.405 3.159-.147 7.432 2.717 3.562 3.257 3.571 7.858.135 1.925-1.437 1.908-1.542-.886-5.573-1.566-2.26-3.123-4.095-3.461-4.077-.338.017-1.852.955-3.364 2.083m.821 1.457c-1.686 1.232-1.682 1.409.081 3.829 2.055 2.82 3.586 3.222 5.14 1.349.746-.9.408-1.98-1.209-3.86-1.932-2.245-2.493-2.429-4.012-1.318m-131.272 2.32c-1.413 2.263-.531 3.545 1.359 1.977 2.012-1.67 1.618-.066-.826 3.367-2.1 2.949-2.109 3.088-.309 4.404 1.023.748 2.223 1.36 2.668 1.36 1.247 0 .957-1.784-.362-2.224-2.082-.694 2.137-6.598 4.31-6.029 2.848.744 2.224-.359-1.507-2.665-4.085-2.525-3.879-2.518-5.333-.19m119.451 2.68c-3.103 1.683-3.151 1.811-1.7 4.522 1.179 2.202 3.176 1.658 2.299-.626-1.037-2.703.431-1.506 2.542 2.072 1.809 3.066 2.359 3.397 4.099 2.465 2.472-1.323 2.653-2.98.26-2.378-1.155.291-2.298-.536-3.363-2.435-1.483-2.645-1.483-2.964 0-3.975 2.566-1.749-.789-1.461-4.137.355M73.02 226.96c-2.645 5.185-2.606 5.39 1.402 7.301 3.789 1.807 4.121 1.616 6.978-4.01l1.651-3.25-3.276-1.997c-1.801-1.098-3.603-1.998-4.005-2-.401-.002-1.638 1.778-2.75 3.956m1.698 1.506c-1.429 2.996-1.438 3.428-.079 3.949 2.477.951 2.98.716 4.2-1.962 1.485-3.259 1.494-3.205-.678-4.367-1.533-.82-2.106-.424-3.443 2.38m97.44-1.844c-2.325 1.015-3.161 1.927-2.75 3 .326.848.592 1.73.592 1.96 0 .23.498.418 1.107.418s.848-.675.531-1.5c-1.169-3.048 1.048-1.381 2.661 2 1.708 3.582 2.361 3.951 5.119 2.893 2.24-.86 1.975-2.652-.286-1.935-1.424.452-2.185-.171-3.198-2.617-1.014-2.449-1.046-3.304-.132-3.608 1.295-.432 1.681-2.286.448-2.151-.412.044-2.254.738-4.092 1.54m-86.491 2.045c-.367.366-.653 1.604-.635 2.75.031 2.047.057 2.049 1.5.142 1.757-2.324 1.883-1.047.333 3.399-1.201 3.444-.204 5.032 3.135 4.995 1.256-.014 1.232-.221-.149-1.271-1.449-1.102-1.486-1.646-.303-4.458.939-2.234 1.815-3.022 2.899-2.606.854.328 1.553.188 1.553-.31s-1.494-1.447-3.321-2.107c-3.857-1.395-4.123-1.423-5.012-.534m74.083 2.022c-2.129.557-2.232 3.222-.303 7.839 1.353 3.237 1.63 3.396 4.25 2.438a424.94 424.94 0 0 1 4.009-1.447c.912-.319.828-1.531-.344-4.971-1.581-4.638-2.618-5.164-7.612-3.859m-63.575 5.454c-.965 3.746-.889 4.532.542 5.607.916.688 2.875 1.25 4.352 1.25 2.325 0 2.833-.572 3.765-4.244 1.242-4.895.787-5.619-4.022-6.399-3.449-.56-3.536-.489-4.637 3.786m64.377-3.227c-1.089 1.762 1.343 6.084 3.423 6.084 2.277 0 2.453-.744 1.05-4.435-.964-2.535-3.376-3.424-4.473-1.649m-12.802.752c-1.865.51-2.128 2.193-1.125 7.207.541 2.705 1.045 3.123 3.75 3.11 5.067-.025 5.921-1.08 4.935-6.097-.728-3.701-1.25-4.412-3.336-4.543-1.361-.085-3.261.06-4.224.323m-49.143 1.914c-1.196 3.117-.65 5.418 1.286 5.418 1.982 0 3.107-1.841 3.107-5.082 0-2.36-3.513-2.629-4.393-.336M109 236.5c0 2.862 1.589 3.361 2.39.75.295-.963.383.387.196 3-.339 4.732-.328 4.75 2.787 4.72 2.608-.026 2.837-.2 1.377-1.05-2.576-1.501-2.381-6.92.25-6.92 3.137 0 2.34-1.682-1.125-2.375-5.117-1.023-5.875-.781-5.875 1.875m12.667-.833c-1.038 1.037-.784 4.333.333 4.333.55 0 1-.675 1-1.5s.441-1.5.981-1.5c.587 0 .733 1.806.364 4.5l-.617 4.5h3.136c1.725 0 3.136-.45 3.136-1s-.675-1-1.5-1c-1.048 0-1.5-1.056-1.5-3.5s.452-3.5 1.5-3.5c.825 0 1.5-.45 1.5-1 0-1.104-7.271-1.395-8.333-.333m12.103-.104c-.759.76.279 8.714 1.282 9.812.439.482 2.407.574 4.373.205 3.261-.612 3.575-.967 3.575-4.044 0-5.455-.817-6.536-4.94-6.536-2.05 0-3.98.253-4.29.563m14.244.687c.041 3.746 1.334 5.75 3.71 5.75 1.86 0 2.336-.4 1.883-1.582-.334-.87-.607-2.445-.607-3.5 0-1.379-.702-1.918-2.5-1.918-1.375 0-2.494.563-2.486 1.25M136 240.5c0 3.067.31 3.5 2.5 3.5 2.573 0 2.912-.861 1.87-4.75-.355-1.323-1.379-2.25-2.487-2.25-1.485 0-1.883.739-1.883 3.5" fill="#1976D2" fill-rule="evenodd"/></svg>